<?xml version="1.0" encoding="UTF-8" standalone="no"?>
<!DOCTYPE svg PUBLIC "-//W3C//DTD SVG 1.1//EN" "http://www.w3.org/Graphics/SVG/1.1/DTD/svg11.dtd">
<svg version="1.1" xmlns="http://www.w3.org/2000/svg" width="250" height="250" viewBox="-0.9 -0.9 1.8 1.8">
	<g style="stroke-width:0.1;stroke-linejoin:round;opacity:1">
		<polygon fill="#000000" stroke="#000000" points="-0.5229918410656,-0.29799572518034 -0.36158769903757,-0.69472651471175 -0.39066231501312,0.28773443022997 -0.55764909158283,0.53797591966596"/>
		<polygon fill="#000000" stroke="#000000" points="-0.39066231501312,0.28773443022997 0.64005004970648,0.36469436755529 0.30747005442516,0.59074907652438 -0.55764909158283,0.53797591966596"/>
		<polygon fill="#000000" stroke="#000000" points="-0.36158769903757,-0.69472651471175 0.59480929172472,-0.57382515379555 0.64005004970648,0.36469436755529 -0.39066231501312,0.28773443022997"/>
	</g>
	<g style="opacity:1;stroke-opacity:0.5;stroke-width:0;stroke-linejoin:round">
		<polygon fill="#404040" stroke="#000000" points="-0.55343132728248,-0.30399025374841 -0.51044174148672,-0.40965849807027 -0.52007764774968,-0.15635686852414 -0.56343568713347,-0.062673904775222"/>
		<polygon fill="#404040" stroke="#000000" points="-0.50233894153127,-0.42829384727834 -0.45403841270127,-0.54701637011289 -0.46313270076158,-0.28052459776852 -0.51197484779423,-0.17499221773221"/>
		<polygon fill="#404040" stroke="#000000" points="-0.44488510320385,-0.56806086201118 -0.3902246638681,-0.7024160215587 -0.39854241245679,-0.42135080834624 -0.45397939126416,-0.30156908966681"/>
		<polygon fill="#FFA100" stroke="#000000" points="-0.56520763751951,-0.018006313744343 -0.52184959813572,-0.11168927749326 -0.53192734265988,0.1532270718835 -0.57564442006889,0.23374055435686"/>
		<polygon fill="#FFA100" stroke="#000000" points="-0.51366669016686,-0.12798004822308 -0.46482454313421,-0.23351242825938 -0.47436285042767,0.045990529964644 -0.52374443469101,0.13693630115368"/>
		<polygon fill="#FFA100" stroke="#000000" points="-0.45555406255919,-0.25196053099017 -0.40011708375182,-0.37174224966959 -0.40886907036847,-0.076003690345363 -0.46509236985265,0.027542427233862"/>
		<polygon fill="#FFA100" stroke="#000000" points="-0.57749625548422,0.28042545515692 -0.53377917807521,0.19991197268357 -0.54432986356623,0.47726064698307 -0.58839411621113,0.54329404459249"/>
		<polygon fill="#FFA100" stroke="#000000" points="-0.52551738200743,0.18620752680105 -0.47613579774408,0.09526175561201 -0.48615145613927,0.38875263023873 -0.53606806749845,0.46355620110055"/>
		<polygon fill="#FFA100" stroke="#000000" points="-0.46674761528526,0.0796978437933 -0.41052431580108,-0.023848273785925 -0.41974545674383,0.28774348899701 -0.47676327368045,0.37318871842002"/>
		<polygon fill="#FFFFFF" stroke="#000000" points="-0.39395874878229,0.31549276379916 -0.071661935894982,0.33955761774773 -0.14871155042625,0.42193889968646 -0.4509765657189,0.40093799322217"/>
		<polygon fill="#FFFFFF" stroke="#000000" points="-0.017470056071473,0.34347033020188 0.29299229835768,0.36665154365831 0.19735815450972,0.44613083267249 -0.09451967060274,0.42585161214062"/>
		<polygon fill="#404040" stroke="#000000" points="0.34526988992013,0.37042583662084 0.64453786091394,0.39277120190364 0.53165276268408,0.46949923242067 0.24963574607216,0.44990512563503"/>
		<polygon fill="#FFFFFF" stroke="#000000" points="-0.46197323176449,0.41485577273116 -0.15970821647184,0.43585667919545 -0.22731928138522,0.50814628420766 -0.51188984312368,0.48965934359298"/>
		<polygon fill="#FFFFFF" stroke="#000000" points="-0.10873947413139,0.43928822352585 0.18313835098107,0.45956744405772 0.099030192187688,0.52946775781823 -0.17635053904477,0.51157782853805"/>
		<polygon fill="#404040" stroke="#000000" points="0.23241836383004,0.46288514392338 0.51443538044195,0.48247925070902 0.41493919221248,0.55010683562952 0.14831020503665,0.53278545768389"/>
		<polygon fill="#FFFFFF" stroke="#000000" points="-0.52157131593835,0.50190188619782 -0.2370007541999,0.5203888268125 -0.29680750140698,0.58433407213889 -0.56563556858325,0.56793528380724"/>
		<polygon fill="#FFFFFF" stroke="#000000" points="-0.18889393664688,0.52342290775696 0.086486794585584,0.54131283703714 0.011939353341789,0.60326746317258 -0.24870068385396,0.58736815308335"/>
		<polygon fill="#404040" stroke="#000000" points="0.13309278426227,0.54425215221274 0.3997217714381,0.56157353015837 0.31136582812176,0.62162908772481 0.058545343018473,0.60620677834818"/>
		<polygon fill="#404040" stroke="#000000" points="-0.35841306921509,-0.71130146655591 -0.060142789623402,-0.67359611713323 -0.060859851072148,-0.39658280376423 -0.36673081780379,-0.43023625334344"/>
		<polygon fill="#404040" stroke="#000000" points="-0.0077785478469152,-0.66740343332896 0.2803268356264,-0.63098306261925 0.28669551791284,-0.35791171960084 -0.0084956092956611,-0.39039011995996"/>
		<polygon fill="#404040" stroke="#000000" points="0.33090034345324,-0.62500210307371 0.60935174650308,-0.58980212450528 0.62233006430391,-0.32056692258217 0.33726902573968,-0.35193076005529"/>
		<polygon fill="#0000F2" stroke="#000000" points="-0.36753124982319,-0.37974124231717 -0.06166028309155,-0.34608779273796 -0.0624140973894,-0.054876214319356 -0.37628323643984,-0.084002682992938"/>
		<polygon fill="#0000F2" stroke="#000000" points="-0.0079686500971123,-0.34064038059638 0.28722247711139,-0.30816198023726 0.29391174281036,-0.021344914152377 -0.0087224643949625,-0.049428802177773"/>
		<polygon fill="#404040" stroke="#000000" points="0.3390327441921,-0.30290538886963 0.62409378275633,-0.27154155139651 0.63771390959732,0.011007979022637 0.34572200989107,-0.016088322784745"/>
		<polygon fill="#0000F2" stroke="#000000" points="-0.37712548235653,-0.030861326459219 -0.063256343306094,-0.0017348577856366 -0.06404981041198,0.30479529027229 -0.38634662329929,0.28073043632372"/>
		<polygon fill="#0000F2" stroke="#000000" points="-0.0081682703520128,0.0028805259317167 0.29446593685331,0.030964413957113 0.30150061697125,0.33259188744606 -0.0089617374578985,0.30941067398964"/>
		<polygon fill="#404040" stroke="#000000" points="0.34757495257676,0.035414053954895 0.63956685228301,0.062510355762277 0.65387760368852,0.35938689272664 0.35460963269471,0.33704152744384"/>
	</g>
</svg>