<?xml version="1.0" encoding="UTF-8" standalone="no"?>
<!DOCTYPE svg PUBLIC "-//W3C//DTD SVG 1.1//EN" "http://www.w3.org/Graphics/SVG/1.1/DTD/svg11.dtd">
<svg version="1.1" xmlns="http://www.w3.org/2000/svg" width="128" height="128" viewBox="-0.9 -0.9 1.8 1.8">
	<g style="stroke-width:0.1;stroke-linejoin:round;opacity:1">
		<polygon fill="#000000" stroke="#000000" points="-0.138807669942,0.17958347132803 0.69972779816366,0.40319968672766 0.10648021804926,0.64818044736207 -0.66794469813464,0.48443465839577"/>
		<polygon fill="#000000" stroke="#000000" points="-0.61490933650418,-0.35432528548252 -0.1259997576956,-0.76700236726473 -0.138807669942,0.17958347132803 -0.66794469813464,0.48443465839577"/>
		<polygon fill="#000000" stroke="#000000" points="-0.1259997576956,-0.76700236726473 0.64174421736584,-0.46543245508989 0.69972779816366,0.40319968672766 -0.138807669942,0.17958347132803"/>
	</g>
	<g style="opacity:1;stroke-opacity:0.5;stroke-width:0;stroke-linejoin:round">
		<polygon fill="#404040" stroke="#000000" points="-0.13994508105184,0.20579957060197 0.13303022237375,0.27859518458774 -0.052421681189719,0.37300391502956 -0.31735670670722,0.30801155313019"/>
		<polygon fill="#404040" stroke="#000000" points="0.17878792379741,0.29033469242626 0.43075988788566,0.35752924666916 0.23894799960987,0.44499556438558 -0.0066639797660557,0.38474342286808"/>
		<polygon fill="#404040" stroke="#000000" points="0.47313934451111,0.36840043677828 0.70644223432686,0.43061642077267 0.50965600056881,0.51187902148843 0.28132745623532,0.45586675449469"/>
		<polygon fill="#FFFFFF" stroke="#000000" points="-0.34769583487168,0.3245060902777 -0.082760809354181,0.38949845217707 -0.24919263622937,0.47422455732067 -0.50623432480275,0.41584471198878"/>
		<polygon fill="#FFFFFF" stroke="#000000" points="-0.03827633148006,0.40002713314756 0.20733564789587,0.46027927466505 0.03451423203396,0.53908592739058 -0.20470815835525,0.48475323829116"/>
		<polygon fill="#404040" stroke="#000000" points="0.2487008802946,0.4700684887535 0.47702942462808,0.52608075574724 0.29907345224232,0.59956742629732 0.075879464432686,0.54887514147903"/>
		<polygon fill="#FFFFFF" stroke="#000000" points="-0.53347552286944,0.43065050843337 -0.27643383429605,0.48903035376526 -0.42662892245411,0.56549075842618 -0.67600037958485,0.51276321164894"/>
		<polygon fill="#FFFFFF" stroke="#000000" points="-0.23320374597019,0.4985266325052 0.0060186444190105,0.55285932160462 -0.15049952167523,0.62423168422015 -0.38339883412825,0.57498703716611"/>
		<polygon fill="#404040" stroke="#000000" points="0.046362421231911,0.56172065948072 0.26955640904155,0.61241294429901 0.10785133529468,0.67918882892599 -0.11015574486233,0.63309302209625"/>
		<polygon fill="#404040" stroke="#000000" points="-0.6434897102844,-0.36497721183518 -0.51049479880902,-0.47723509005733 -0.5225725824643,-0.22937862454668 -0.65860634883943,-0.12590594850731"/>
		<polygon fill="#404040" stroke="#000000" points="-0.48548943014858,-0.49723428329322 -0.33885975508452,-0.6210009449233 -0.34716794712749,-0.36377746290043 -0.49756721380385,-0.24937781778256"/>
		<polygon fill="#404040" stroke="#000000" points="-0.31117179862759,-0.64314100093892 -0.1486972979465,-0.7802819073791 -0.15231282588946,-0.51307149212971 -0.31947999067056,-0.38591751891606"/>
		<polygon fill="#404040" stroke="#000000" points="-0.66106849567871,-0.081656279401992 -0.52503472930358,-0.18512895544136 -0.53782242159373,0.077296031090983 -0.67703004082704,0.17077727250078"/>
		<polygon fill="#00D800" stroke="#000000" points="-0.49941141077748,-0.20340528051099 -0.34901214410112,-0.31780492562886 -0.35783525948034,-0.044639302061701 -0.51219910306764,0.059019706021357"/>
		<polygon fill="#00D800" stroke="#000000" points="-0.32055299389101,-0.33809853757181 -0.15338582910991,-0.46525251078546 -0.15723834023207,-0.18052753757358 -0.32937610927023,-0.064932914004654"/>
		<polygon fill="#FFA100" stroke="#000000" points="-0.67963506716412,0.21760819152496 -0.54042744793081,0.12412695011516 -0.55398953460268,0.40244381381975 -0.69651439131809,0.48455651703533"/>
		<polygon fill="#FFA100" stroke="#000000" points="-0.51415573241631,0.10781931513391 -0.35979188882901,0.0041603070508509 -0.36917932915711,0.29479755712742 -0.52771781908818,0.3861361788385"/>
		<polygon fill="#404040" stroke="#000000" points="-0.33051758271936,-0.014004780356026 -0.1583798136812,-0.12959940392496 -0.16249339739208,0.17442048719233 -0.33990502304746,0.27663246972054"/>
		<polygon fill="#404040" stroke="#000000" points="-0.11177288070008,-0.78440026408189 0.1365107226519,-0.68687443921128 0.14061381946874,-0.42672365169057 -0.11538840864303,-0.51718984883249"/>
		<polygon fill="#404040" stroke="#000000" points="0.17937084286869,-0.67086492826794 0.4101896483838,-0.58019927777955 0.42093836545725,-0.32679884159336 0.18347393968553,-0.41071414074723"/>
		<polygon fill="#404040" stroke="#000000" points="0.45004452751328,-0.56531250650824 0.66517869184006,-0.48080778468787 0.68166306920578,-0.23386097973558 0.46079324458673,-0.31191207032205"/>
		<polygon fill="#FFA100" stroke="#000000" points="-0.1153225772823,-0.46921170704214 0.14067965082947,-0.37874550990022 0.14504126752735,-0.10220365152558 -0.11917508840446,-0.18448673383026"/>
		<polygon fill="#FFA100" stroke="#000000" points="0.18484192064268,-0.36404460644049 0.4223063464144,-0.28012930728662 0.43370703377863,-0.011358705997608 0.18920353734057,-0.087502748065862"/>
		<polygon fill="#404040" stroke="#000000" points="0.46328121576664,-0.26648966323823 0.68415104038569,-0.18843857265177 0.70159933001779,0.07294827144523 0.47468190313086,0.0022809380507742"/>
		<polygon fill="#404040" stroke="#000000" points="-0.11910513081675,-0.13337578712347 0.14511122511507,-0.051092704818796 0.14975658889796,0.24343971797958 -0.12321871452763,0.17064410399381"/>
		<polygon fill="#404040" stroke="#000000" points="0.19065725335213,-0.03790350159401 0.43516074979018,0.038240540474244 0.44727458122327,0.32382347544727 0.19530261713502,0.25662892120437"/>
		<polygon fill="#404040" stroke="#000000" points="0.47732013681258,0.050448778068007 0.7042375636995,0.12111611146246 0.72273685806141,0.39824769703543 0.48943396824567,0.33603171304103"/>
	</g>
</svg>