<?xml version="1.0" encoding="UTF-8" standalone="no"?>
<!DOCTYPE svg PUBLIC "-//W3C//DTD SVG 1.1//EN" "http://www.w3.org/Graphics/SVG/1.1/DTD/svg11.dtd">
<svg version="1.1" xmlns="http://www.w3.org/2000/svg" width="128" height="128" viewBox="-0.9 -0.9 1.8 1.8">
	<g style="stroke-width:0.1;stroke-linejoin:round;opacity:1">
		<polygon fill="#000000" stroke="#000000" points="-0.69972779816366,0.40319968672766 0.138807669942,0.17958347132803 0.66794469813464,0.48443465839577 -0.10648021804926,0.64818044736207"/>
		<polygon fill="#000000" stroke="#000000" points="0.1259997576956,-0.76700236726473 0.61490933650418,-0.35432528548252 0.66794469813464,0.48443465839577 0.138807669942,0.17958347132803"/>
		<polygon fill="#000000" stroke="#000000" points="-0.64174421736584,-0.46543245508989 0.1259997576956,-0.76700236726473 0.138807669942,0.17958347132803 -0.69972779816366,0.40319968672766"/>
	</g>
	<g style="opacity:1;stroke-opacity:0.5;stroke-width:0;stroke-linejoin:round">
		<polygon fill="#FFFFFF" stroke="#000000" points="-0.70688114716353,0.43116380756685 -0.47357825734778,0.36894782357246 -0.28176636907199,0.45641414128887 -0.51009491340548,0.51242640828261"/>
		<polygon fill="#FFFFFF" stroke="#000000" points="-0.43132106300734,0.35814181249788 -0.17934909891909,0.29094725825497 0.0061028046443803,0.3853559886968 -0.23950917473155,0.44560813021429"/>
		<polygon fill="#404040" stroke="#000000" points="-0.13373965865976,0.27928370683065 0.13923564476583,0.20648809284489 0.31664727042121,0.3087000753731 0.051712244903711,0.37369243727248"/>
		<polygon fill="#FFFFFF" stroke="#000000" points="-0.47748247373313,0.52655016593919 -0.24915392939964,0.47053789894545 -0.076332513537732,0.54934455167098 -0.29952650134737,0.60003683648927"/>
		<polygon fill="#FFFFFF" stroke="#000000" points="-0.2078994351594,0.46080157929018 0.037712544216525,0.40054943777268 0.20414437109171,0.48527554291628 -0.035078019297494,0.5396082320157"/>
		<polygon fill="#404040" stroke="#000000" points="0.082064338447347,0.39008190952126 0.34699936396485,0.32508954762189 0.50553785389591,0.41642816933297 0.24849616532253,0.47480801466486"/>
		<polygon fill="#FFFFFF" stroke="#000000" points="-0.27001407736384,0.61281851588624 -0.046820089554202,0.56212623106795 0.10969807654004,0.63349859368348 -0.10830900361697,0.67959440051321"/>
		<polygon fill="#FFFFFF" stroke="#000000" points="-0.0065765630604381,0.55330826649098 0.23264582732877,0.49897557739156 0.38284091548683,0.57543598205247 0.1499416030338,0.62468062910651"/>
		<polygon fill="#FFFFFF" stroke="#000000" points="0.27575704916876,0.48952908599067 0.53279873774214,0.43114924065878 0.67532359445756,0.51326194387435 0.42595213732682,0.56598949065159"/>
		<polygon fill="#404040" stroke="#000000" points="0.14911135654356,-0.78116310736968 0.31158585722465,-0.6440222009295 0.31989404926762,-0.38679871890663 0.15272688448652,-0.51395269212028"/>
		<polygon fill="#404040" stroke="#000000" points="0.33919236610914,-0.62182744638026 0.48582204117319,-0.49806078475018 0.49789982482847,-0.25020431923952 0.3475005581521,-0.36460396435739"/>
		<polygon fill="#404040" stroke="#000000" points="0.51076293306488,-0.47801025495581 0.64375784454026,-0.36575237673366 0.65887448309529,-0.12668111340579 0.52284071672016,-0.23015378944516"/>
		<polygon fill="#404040" stroke="#000000" points="0.15382441183848,-0.46627245340117 0.32099157661958,-0.33911848018752 0.3298146919988,-0.065952856620364 0.15767692296063,-0.18154748018929"/>
		<polygon fill="#EE0000" stroke="#000000" points="0.34936195971091,-0.31875262889664 0.49976122638727,-0.20435298377877 0.51254891867743,0.058072002753579 0.35818507509013,-0.045587005329478"/>
		<polygon fill="#EE0000" stroke="#000000" points="0.52531477514401,-0.18601055261456 0.66134854151914,-0.082537876575189 0.67731008666747,0.16989567532758 0.53810246743416,0.076414433917786"/>
		<polygon fill="#404040" stroke="#000000" points="0.15884515397095,-0.13078022519325 0.33098292300912,-0.015185601624324 0.34037036333722,0.27545164845225 0.16295873768183,0.17323966592403"/>
		<polygon fill="#404040" stroke="#000000" points="0.36016023997699,0.0030732141356762 0.51452408356429,0.10673222221873 0.52808617023615,0.38504908592332 0.36954768030509,0.29371046421225"/>
		<polygon fill="#EE0000" stroke="#000000" points="0.5407201453557,0.12312384380391 0.67992776458901,0.21660508521371 0.69680708874298,0.48355341072407 0.55428223202757,0.4014407075085"/>
		<polygon fill="#404040" stroke="#000000" points="-0.66467260416722,-0.48023834663782 -0.44953843984044,-0.56474306845819 -0.46028715691389,-0.311342632272 -0.68115698153294,-0.23329154168553"/>
		<polygon fill="#404040" stroke="#000000" points="-0.40960327012586,-0.57960365854415 -0.17878446461076,-0.67026930903255 -0.1828875614276,-0.41011852151184 -0.42035198719931,-0.32620322235796"/>
		<polygon fill="#404040" stroke="#000000" points="-0.13582966752603,-0.68625153088228 0.11245393582594,-0.78377735575289 0.11606946376889,-0.51656694050349 -0.13993276434287,-0.42610074336157"/>
		<polygon fill="#0000F2" stroke="#000000" points="-0.68361742842087,-0.18778706466424 -0.46274760380182,-0.2658381552507 -0.47414829116605,0.0029324460383046 -0.70106571805297,0.073599779432761"/>
		<polygon fill="#0000F2" stroke="#000000" points="-0.42168525194384,-0.279443608132 -0.18422082617213,-0.36335890728588 -0.18858244287001,-0.086817048911248 -0.43308593930807,-0.010673006842994"/>
		<polygon fill="#404040" stroke="#000000" points="-0.13995487484534,-0.37802347035575 0.11604735326642,-0.46848966749768 0.11989986438858,-0.18376469428579 -0.14431649154323,-0.10148161198112"/>
		<polygon fill="#0000F2" stroke="#000000" points="-0.7036741404999,0.12186181876247 -0.47675671361298,0.051194485368013 -0.48887054504606,0.33677742034104 -0.72217343486181,0.39899340433543"/>
		<polygon fill="#0000F2" stroke="#000000" points="-0.43450176735046,0.039030201164716 -0.18999827091241,-0.037113840903538 -0.1946436346953,0.25741858189484 -0.44661559878355,0.32461313613774"/>
		<polygon fill="#404040" stroke="#000000" points="-0.14433837680679,-0.050255575261245 0.11987797912502,-0.13253865756592 0.12399156283591,0.17148123355136 -0.14898374058968,0.24427684753713"/>
	</g>
</svg>