<?xml version="1.0" encoding="UTF-8" standalone="no"?>
<!DOCTYPE svg PUBLIC "-//W3C//DTD SVG 1.1//EN" "http://www.w3.org/Graphics/SVG/1.1/DTD/svg11.dtd">
<svg version="1.1" xmlns="http://www.w3.org/2000/svg" width="250" height="250" viewBox="-0.9 -0.9 1.8 1.8">
	<g style="stroke-width:0.1;stroke-linejoin:round;opacity:1">
		<polygon fill="#000000" stroke="#000000" points="-0.65400098857461,-0.50223953102503 -0.20684405736417,-0.10342202868208 -0.18464331255837,0.78141988002483 -0.59354043975904,0.29677021987952"/>
		<polygon fill="#000000" stroke="#000000" points="-0.65400098857461,-0.50223953102503 0.16103316974267,-0.68150055605482 0.69915174967186,-0.34957587483593 -0.20684405736417,-0.10342202868208"/>
		<polygon fill="#000000" stroke="#000000" points="-0.20684405736417,-0.10342202868208 0.69915174967186,-0.34957587483593 0.63049311492991,0.48418667844381 -0.18464331255837,0.78141988002483"/>
	</g>
	<g style="opacity:1;stroke-opacity:0.5;stroke-width:0;stroke-linejoin:round">
		<polygon fill="#EE0000" stroke="#000000" points="-0.68674578431385,-0.5096831638162 -0.59770403693448,-0.43026718071165 -0.58474637124073,-0.23072212151647 -0.67205956650272,-0.31559906327668"/>
		<polygon fill="#EE0000" stroke="#000000" points="-0.58152314066348,-0.41516788428889 -0.485116068029,-0.3291827966549 -0.47422373127773,-0.12391344874028 -0.56856547496973,-0.21562282509371"/>
		<polygon fill="#00D800" stroke="#000000" points="-0.46758710039574,-0.31282516485509 -0.36286141177668,-0.21942073645198 -0.35444020310202,-0.0081544108433185 -0.45669476364447,-0.10755581694047"/>
		<polygon fill="#00D800" stroke="#000000" points="-0.34380857398585,-0.20164062175808 -0.22963904907739,-0.099813273036427 -0.22418089230076,0.11772924197837 -0.33538736531118,0.0096257038505837"/>
		<polygon fill="#FFA100" stroke="#000000" points="-0.66967790005484,-0.28175256136842 -0.58236470479285,-0.19687561960821 -0.57005870286134,-0.007366031854092 -0.65570343158424,-0.097074506166144"/>
		<polygon fill="#FFA100" stroke="#000000" points="-0.56651129241402,-0.18085049537024 -0.47216954872202,-0.089141119016817 -0.46184647878441,0.10540022532058 -0.55420529048251,0.0086590923838716"/>
		<polygon fill="#FFA100" stroke="#000000" points="-0.45503104551938,-0.071816658187467 -0.35277648497692,0.027584747909687 -0.34481334964383,0.2273591991958 -0.44470797558177,0.12272468614993"/>
		<polygon fill="#0000F2" stroke="#000000" points="-0.33419002645178,0.046373258376653 -0.22298355344136,0.15447679650444 -0.21783492170952,0.35968275552456 -0.32622689111869,0.24614770966277"/>
		<polygon fill="#FFA100" stroke="#000000" points="-0.65343783504626,-0.0648782719942 -0.56779310632336,0.024830202317852 -0.5560908140302,0.20504280106427 -0.64012459896273,0.11106133912783"/>
		<polygon fill="#FFA100" stroke="#000000" points="-0.55225499965844,0.041671668428292 -0.45989618796035,0.138412801365 -0.45009889388575,0.32304574211432 -0.54055270736528,0.22188426717471"/>
		<polygon fill="#FFA100" stroke="#000000" points="-0.44313169459871,0.1565838110449 -0.34323706866077,0.26121832409077 -0.33569562079037,0.45041372856297 -0.43333440052412,0.34121675179422"/>
		<polygon fill="#0000F2" stroke="#000000" points="-0.32509502242382,0.28088279543276 -0.21670305301465,0.39441784129456 -0.21183834313924,0.5883076954017 -0.31755357455342,0.47007819990496"/>
		<polygon fill="#FFA100" stroke="#000000" points="-0.63796678892483,0.14172513155941 -0.5539330039923,0.23570659349585 -0.54279105964628,0.40728996326499 -0.62526893842495,0.30953218200289"/>
		<polygon fill="#FFA100" stroke="#000000" points="-0.53869862078,0.25326738375758 -0.44824480730047,0.35442885869719 -0.43893411829373,0.52989158122322 -0.52755667643397,0.42485075352672"/>
		<polygon fill="#FFA100" stroke="#000000" points="-0.43183883998249,0.37334039375188 -0.33420006024874,0.48253737052063 -0.32704766818488,0.6619723719582 -0.42252815097575,0.54880311627792"/>
		<polygon fill="#FEFE00" stroke="#000000" points="-0.31648194887111,0.5029617362771 -0.21076671745692,0.62119123177384 -0.2061630742611,0.80467590618591 -0.30932955680724,0.68239673771467"/>
		<polygon fill="#FEFE00" stroke="#000000" points="-0.67008340605804,-0.5314021314717 -0.47390624024075,-0.57454991794541 -0.37924370608582,-0.49858938926772 -0.58104165867868,-0.45198614836716"/>
		<polygon fill="#EE0000" stroke="#000000" points="-0.43957155773045,-0.58228881533985 -0.25168192407122,-0.62361381746217 -0.15195978760935,-0.55088800399216 -0.34490902357551,-0.50632828666216"/>
		<polygon fill="#EE0000" stroke="#000000" points="-0.21880901091415,-0.63102317538045 -0.038692610767642,-0.67063850951761 0.065583174335269,-0.60094508286194 -0.11908687445228,-0.55829736191044"/>
		<polygon fill="#EE0000" stroke="#000000" points="-0.0071900570341352,-0.67773893913594 0.16562571628931,-0.71574855180203 0.27399827023534,-0.64890171401742 0.097085728068775,-0.60804551248026"/>
		<polygon fill="#FFFFFF" stroke="#000000" points="-0.56415766481091,-0.43773497900013 -0.36235971221805,-0.48433821990069 -0.26004952909602,-0.40224095017896 -0.46775059217643,-0.35174989136614"/>
		<polygon fill="#FEFE00" stroke="#000000" points="-0.32706277614636,-0.49270229956768 -0.13411354018019,-0.53726201689768 -0.026518603471326,-0.45879469183793 -0.22475259302433,-0.41060502984595"/>
		<polygon fill="#FEFE00" stroke="#000000" points="-0.10037686395533,-0.5452562954785 0.084293184832212,-0.58790401643 0.19661783400236,-0.51283107700463 0.0072180727535267,-0.46678897041875"/>
		<polygon fill="#0000F2" stroke="#000000" points="0.11657082465676,-0.59555249001581 0.29348336682333,-0.63640869155297 0.41003867638429,-0.56451453027818 0.22889547382691,-0.52047955059044"/>
		<polygon fill="#FEFE00" stroke="#000000" points="-0.44945670862551,-0.33630923809028 -0.2417556455451,-0.3868002969031 -0.1308320379358,-0.29779131407734 -0.34473102000645,-0.24290480968717"/>
		<polygon fill="#FEFE00" stroke="#000000" points="-0.20545125132259,-0.39586850361379 -0.0072172617695842,-0.44405816560577 0.1092210943948,-0.35914147136303 -0.094527643713285,-0.30685952078803"/>
		<polygon fill="#FEFE00" stroke="#000000" points="0.027418464815757,-0.45270947335809 0.21681822606459,-0.49875157994397 0.338161066061,-0.41765127164962 0.14385682098014,-0.36779277911535"/>
		<polygon fill="#FEFE00" stroke="#000000" points="0.24989775413,-0.50701409420227 0.43104095668738,-0.55104907389001 0.55674215095232,-0.47351350758283 0.37124059412642,-0.42591378590793"/>
		<polygon fill="#FEFE00" stroke="#000000" points="-0.32484293839398,-0.22611925209384 -0.11094395632333,-0.28100575648401 0.0097286133322751,-0.18417386549605 -0.21067341348552,-0.12429190337219"/>
		<polygon fill="#FFA100" stroke="#000000" points="-0.073585667745456,-0.29087091041797 0.13016307036263,-0.34315286099297 0.25658185705539,-0.25095759295799 0.047086901910148,-0.19403901943"/>
		<polygon fill="#FFA100" stroke="#000000" points="0.16573307436361,-0.35254566674557 0.36003731944447,-0.40240415927985 0.49152983495945,-0.31452024666515 0.29215186105637,-0.2603503987106"/>
		<polygon fill="#FFA100" stroke="#000000" points="0.39394445034333,-0.41135775048351 0.57944600716924,-0.45895747215841 0.71541353763115,-0.375089378976 0.52543696585831,-0.32347383786881"/>
		<polygon fill="#FFA100" stroke="#000000" points="-0.20068341751305,-0.096434962423476 0.019718609304751,-0.15631692454733 0.018769038751026,0.057567724149771 -0.19522526073642,0.12110755259132"/>
		<polygon fill="#0000F2" stroke="#000000" points="0.057139243490404,-0.16693734182476 0.26663419863564,-0.22385591535275 0.25988816688961,-0.013535460147953 0.056189672936679,0.046947306872345"/>
		<polygon fill="#0000F2" stroke="#000000" points="0.30224801256739,-0.23396412601245 0.50162598647047,-0.288133973967 0.48963025023592,-0.081284818089614 0.29550198082136,-0.023643670807655"/>
		<polygon fill="#FFFFFF" stroke="#000000" points="0.53556083814842,-0.29776618319571 0.72553740992127,-0.3493817243029 0.70878211369427,-0.14591221728913 0.52356510191387,-0.090917027318323"/>
		<polygon fill="#FFFFFF" stroke="#000000" points="-0.1948228068059,0.1581300884841 0.019171492681545,0.094590260042552 0.018274480450802,0.29663648514595 -0.18967417507405,0.36333604750423"/>
		<polygon fill="#0000F2" stroke="#000000" points="0.055542824236522,0.083374050753014 0.25924131818946,0.022891283732716 0.25285993680807,0.22184306568319 0.054645812005779,0.28542027585641"/>
		<polygon fill="#0000F2" stroke="#000000" points="0.29390420026552,0.012201414009302 0.48803246968007,-0.045439733272657 0.4766703217932,0.15048410611473 0.28752281888413,0.21115319595978"/>
		<polygon fill="#FFFFFF" stroke="#000000" points="0.52110458642401,-0.05563948517909 0.7063215982044,-0.1106346751499 0.6904314922205,0.082328313217345 0.50974243853714,0.14028435420829"/>
		<polygon fill="#FFFFFF" stroke="#000000" points="-0.18929476933464,0.39830988599992 0.018653886190213,0.33161032364165 0.017805186171696,0.52277453423944 -0.18443005945923,0.59219974010707"/>
		<polygon fill="#0000F2" stroke="#000000" points="0.054033235702765,0.31987852826542 0.25224736050506,0.2563013180922 0.24620184130165,0.44478195362424 0.053184535684248,0.51104273886321"/>
		<polygon fill="#0000F2" stroke="#000000" points="0.28600880301751,0.24510557338084 0.47515630592658,0.18443648353578 0.46437884081953,0.37027831235729 0.27996328381409,0.43358620891287"/>
		<polygon fill="#FEFE00" stroke="#000000" points="0.50740840408099,0.17374084939616 0.68809745776436,0.11578480840522 0.67300721514824,0.29903458114703 0.49663093897395,0.35958267821767"/>
		<polygon fill="#00D800" stroke="#000000" points="-0.18407177816389,0.62529045819614 0.018163467467029,0.55586525232852 0.017359278938725,0.73700353656422 -0.17946813496807,0.80877513260821"/>
		<polygon fill="#0000F2" stroke="#000000" points="0.052603577514002,0.54368795996728 0.2456208831314,0.47742717472831 0.2398853905538,0.65624213664331 0.051799388985698,0.72482624420298"/>
		<polygon fill="#EE0000" stroke="#000000" points="0.27852661027529,0.46579201588783 0.46294216728073,0.40248411933225 0.45270538637774,0.57900262951643 0.2727911176977,0.64460697780284"/>
		<polygon fill="#FEFE00" stroke="#000000" points="0.49441387227239,0.39135565919494 0.67079014844668,0.3308075621243 0.65644085760279,0.50505951771188 0.4841770913694,0.56787416937912"/>
	</g>
</svg>