<?xml version="1.0" encoding="UTF-8" standalone="no"?>
<!DOCTYPE svg PUBLIC "-//W3C//DTD SVG 1.1//EN" "http://www.w3.org/Graphics/SVG/1.1/DTD/svg11.dtd">
<svg version="1.1" xmlns="http://www.w3.org/2000/svg" width="128" height="128" viewBox="-0.9 -0.9 1.8 1.8">
	<g style="opacity:0.7;stroke-opacity:0.5;stroke-width:0;stroke-linejoin:round">
		<polygon fill="#404040" stroke="#000000" points="0.09171720709779,-0.1252792322325 -0.058610234229377,-0.17299450326639 -0.059759847885038,-0.0043245473846209 0.093362226949083,0.040448499802135"/>
		<polygon fill="#404040" stroke="#000000" points="-0.086026380145892,-0.18134272141467 -0.24335297773893,-0.23127958709081 -0.24756487286155,-0.059570633512834 -0.087175993801552,-0.0126727655329"/>
		<polygon fill="#404040" stroke="#000000" points="-0.27207463817108,-0.24002498319364 -0.43690085754828,-0.29234229573246 -0.44447208726505,-0.11749365310495 -0.2762865332937,-0.068316029615665"/>
		<polygon fill="#404040" stroke="#000000" points="-0.46702360320133,-0.30151391907728 -0.63989878838901,-0.35638604517376 -0.65115973094218,-0.17829302848566 -0.4745948329181,-0.12666527644977"/>
		<polygon fill="#404040" stroke="#000000" points="0.09340204290878,0.07052584625826 -0.059720031925341,0.025752799071504 -0.060913804233404,0.20090166020629 0.09510879252155,0.24247255088495"/>
		<polygon fill="#0000F2" stroke="#000000" points="-0.087663688755134,0.017956716790144 -0.24805256781513,-0.02894115118979 -0.2524301636334,0.14952302592294 -0.088857461063198,0.19310557792493"/>
		<polygon fill="#0000F2" stroke="#000000" points="-0.27735315427688,-0.037115420752264 -0.44553870824822,-0.086293044241545 -0.45341518426826,0.095604902632358 -0.28173075009515,0.14134875636046"/>
		<polygon fill="#0000F2" stroke="#000000" points="-0.47629757280646,-0.094873718212628 -0.65286247083053,-0.14650147024852 -0.66458895984845,0.038954213811612 -0.48417404882649,0.087024228661275"/>
		<polygon fill="#404040" stroke="#000000" points="0.095149929978677,0.2737038814646 -0.060872666776277,0.23213299078594 -0.062113191874941,0.41414136606194 0.09692195042877,0.4522263048153"/>
		<polygon fill="#0000F2" stroke="#000000" points="-0.08936455311939,0.22493865713263 -0.25293725568959,0.18135610513063 -0.25749052668505,0.36698214168306 -0.090605078218054,0.40694703240862"/>
		<polygon fill="#0000F2" stroke="#000000" points="-0.28284058753554,0.17380580089232 -0.45452502170865,0.12806194716422 -0.46272558354814,0.31744427474589 -0.28739385853099,0.35943183744475"/>
		<polygon fill="#0000F2" stroke="#000000" points="-0.48594740093658,0.12012856805215 -0.66636231195853,0.072058553202483 -0.67858382651943,0.26534311942512 -0.49414796277607,0.30951089563382"/>
		<polygon fill="#404040" stroke="#000000" points="0.096964474649745,0.48467936328846 -0.062070667653965,0.4465944245351 -0.063360746933005,0.6358733305469 0.098805583133938,0.67016206933314"/>
		<polygon fill="#404040" stroke="#000000" points="-0.091132748456941,0.44005610997946 -0.25801819692393,0.40009121925389 -0.26275793453266,0.59331905644735 -0.092422827735981,0.62933501599126"/>
		<polygon fill="#404040" stroke="#000000" points="-0.28854959450854,0.39322281186014 -0.46388131952569,0.35123524916128 -0.47242638960911,0.54857358931661 -0.29328933211726,0.58645064905359"/>
		<polygon fill="#404040" stroke="#000000" points="-0.49599641485532,0.34401108987074 -0.68043227859868,0.29984331366204 -0.69318084032403,0.50146318743219 -0.50454148493874,0.54134943002608"/>
		<polygon fill="#404040" stroke="#000000" points="0.67153545607475,-0.47189939546285 0.53586008935731,-0.38753111209236 0.54492899710681,-0.20849556778068 0.68381155846512,-0.28799531493178"/>
		<polygon fill="#404040" stroke="#000000" points="0.5124821718098,-0.37355745919867 0.38601186170118,-0.29491324234965 0.39227671407167,-0.12052213212902 0.52155107955931,-0.194521914887"/>
		<polygon fill="#404040" stroke="#000000" points="0.36420890140686,-0.28188126867741 0.24603759210448,-0.20839769718836 0.249843847217,-0.038438673687099 0.37047375377735,-0.10749015845679"/>
		<polygon fill="#404040" stroke="#000000" points="0.22565561192527,-0.19621531194375 0.11499238112441,-0.12740055919394 0.1166374009757,0.038327172840689 0.22946186703778,-0.026256288442491"/>
		<polygon fill="#404040" stroke="#000000" points="0.68572826424175,-0.25531338742719 0.54684570288343,-0.1758136402761 0.55629226596143,0.010677457578171 0.69853498700034,-0.063460265105412"/>
		<polygon fill="#FEFE00" stroke="#000000" points="0.5229262655235,-0.1627190429039 0.39365190003587,-0.088719260145929 0.40016843321392,0.092677744684146 0.5323728286015,0.023772054950366"/>
		<polygon fill="#FEFE00" stroke="#000000" points="0.37137541315177,-0.076524400129443 0.25074550659142,-0.0074729153597563 0.2546994604643,0.16908123546284 0.37789194632982,0.10487260470063"/>
		<polygon fill="#404040" stroke="#000000" points="0.22994830863119,0.0039118640393872 0.11712384256911,0.068495325322567 0.11883059218188,0.24044202994926 0.23390226250408,0.18046601486198"/>
		<polygon fill="#404040" stroke="#000000" points="0.70053396047944,-0.029377143117975 0.55829123944054,0.044760579565608 0.56813954944516,0.23918283976811 0.71390646672917,0.17095178768187"/>
		<polygon fill="#FEFE00" stroke="#000000" points="0.53380490986189,0.056888951523632 0.4016005144743,0.12579464125741 0.40838420568066,0.31462837123348 0.5436532198665,0.25131121172613"/>
		<polygon fill="#FEFE00" stroke="#000000" points="0.37882961864579,0.13707299498388 0.25563713278028,0.20128162574609 0.25974755251659,0.3848223774595 0.38561330985214,0.32590672495995"/>
		<polygon fill="#404040" stroke="#000000" points="0.23440749553258,0.21179630081845 0.11933582521038,0.27177231590573 0.12110784566047,0.45029473925642 0.23851791526889,0.39533705253186"/>
		<polygon fill="#404040" stroke="#000000" points="0.71599312100436,0.20652819604616 0.57022620372034,0.2747592481324 0.58050244592273,0.47762961212785 0.72996975096539,0.41590729701572"/>
		<polygon fill="#404040" stroke="#000000" points="0.5451458021067,0.28582529501572 0.40987678792086,0.34914245452308 0.41694440997189,0.54587980493595 0.55542204430909,0.48869565901117"/>
		<polygon fill="#404040" stroke="#000000" points="0.38658919677379,0.35941709240116 0.26072343943824,0.4183327449007 0.26499980001056,0.60928317925825 0.39365681882482,0.55615444281403"/>
		<polygon fill="#404040" stroke="#000000" points="0.23904305011188,0.42789794586345 0.12163298050345,0.48285563258802 0.12347408898765,0.6683383386327 0.2433194106842,0.61884838022101"/>
		<polygon fill="#404040" stroke="#000000" points="-0.6298870640116,-0.37908778748412 -0.45701187882392,-0.32421566138764 -0.35480661176645,-0.40340905755028 -0.53134216638517,-0.46226721889575"/>
		<polygon fill="#404040" stroke="#000000" points="-0.4269317009421,-0.31443075167246 -0.26210548156491,-0.26211343913364 -0.15669293641173,-0.33760063049285 -0.32472643388464,-0.3936241478351"/>
		<polygon fill="#404040" stroke="#000000" points="-0.23343276859728,-0.25278642608013 -0.076106171004235,-0.20284956040399 0.032110970811925,-0.27488478203833 -0.12802022344409,-0.32827361743934"/>
		<polygon fill="#404040" stroke="#000000" points="-0.048744395012626,-0.19394903638094 0.10158304631454,-0.14623376534705 0.2122462771154,-0.21504851809685 0.059472746803535,-0.26598425801528"/>
		<polygon fill="#404040" stroke="#000000" points="-0.51297012694255,-0.47710469394031 -0.33643457232383,-0.41824653259483 -0.22676302293387,-0.50322515168817 -0.40703739447175,-0.56652002306476"/>
		<polygon fill="#EE0000" stroke="#000000" points="-0.30574469661984,-0.40774687246408 -0.13771119914694,-0.35172335512183 -0.024790110536744,-0.43258750475431 -0.19607314722988,-0.49272549155741"/>
		<polygon fill="#EE0000" stroke="#000000" points="-0.1085069484538,-0.34173202705161 0.051624245802215,-0.28834319165061 0.16736215053898,-0.3653846425639 0.0044141401563881,-0.4225961766841"/>
		<polygon fill="#404040" stroke="#000000" points="0.079448198372817,-0.27882415152616 0.23222172868468,-0.22788841160774 0.35039303798706,-0.30137198309679 0.19518610310958,-0.35586560243946"/>
		<polygon fill="#404040" stroke="#000000" points="-0.38727977222607,-0.5824762409148 -0.20700540068818,-0.51918136953822 -0.089018414374549,-0.61060317604763 -0.27309605984529,-0.67885602821041"/>
		<polygon fill="#EE0000" stroke="#000000" points="-0.1756967007585,-0.50788567790166 -0.0044136640653702,-0.44774769109856 0.11684784655357,-0.53458451724005 -0.057709714444873,-0.59930748441107"/>
		<polygon fill="#EE0000" stroke="#000000" points="0.025325197681985,-0.43701845553867 0.18827320806458,-0.37980692141847 0.31234410474449,-0.46239526547113 0.14658670830092,-0.52385528168015"/>
		<polygon fill="#404040" stroke="#000000" points="0.21655741618417,-0.36960257312437 0.37176435106165,-0.3151089537817 0.49823466117028,-0.39375317063073 0.34062831286408,-0.45219091717703"/>
		<polygon fill="#404040" stroke="#000000" points="-0.25178995994387,-0.69606247992105 -0.067712314473128,-0.62780962775827 0.059573105362199,-0.72643629318323 -0.12835221520135,-0.80025337838178"/>
		<polygon fill="#404040" stroke="#000000" points="-0.035778973632092,-0.61562381401112 0.13877858736635,-0.55090084684009 0.26933999693089,-0.6443974424645 0.091506446203234,-0.71425047943608"/>
		<polygon fill="#404040" stroke="#000000" points="0.16905132197819,-0.5393488248167 0.33480871842175,-0.47788880860768 0.46814616281182,-0.56664547134704 0.29961273154274,-0.63284542044111"/>
		<polygon fill="#404040" stroke="#000000" points="0.36354710081091,-0.4669223843026 0.5211534491171,-0.4084846377563 0.65682881583454,-0.49285292112679 0.49688454520098,-0.55567904704197"/>
	</g>
	<g style="stroke-width:0.1;stroke-linejoin:round;opacity:0.1">
		<polygon fill="#000000" stroke="#000000" points="0.098777859820499,-0.12779460215946 -0.61490933650418,-0.35432528548252 -0.66794469813464,0.48443465839577 0.10648021804926,0.64818044736207"/>
		<polygon fill="#000000" stroke="#000000" points="0.64174421736584,-0.46543245508989 0.098777859820499,-0.12779460215946 0.10648021804926,0.64818044736207 0.69972779816366,0.40319968672766"/>
		<polygon fill="#000000" stroke="#000000" points="-0.61490933650418,-0.35432528548252 0.098777859820499,-0.12779460215946 0.64174421736584,-0.46543245508989 -0.1259997576956,-0.76700236726473"/>
	</g>
	<g style="stroke-width:0.1;stroke-linejoin:round;opacity:0.1">
		<polygon fill="#000000" stroke="#000000" points="-0.138807669942,0.17958347132803 0.69972779816366,0.40319968672766 0.10648021804926,0.64818044736207 -0.66794469813464,0.48443465839577"/>
		<polygon fill="#000000" stroke="#000000" points="-0.61490933650418,-0.35432528548252 -0.1259997576956,-0.76700236726473 -0.138807669942,0.17958347132803 -0.66794469813464,0.48443465839577"/>
		<polygon fill="#000000" stroke="#000000" points="-0.1259997576956,-0.76700236726473 0.64174421736584,-0.46543245508989 0.69972779816366,0.40319968672766 -0.138807669942,0.17958347132803"/>
	</g>
	<g style="opacity:0.7;stroke-opacity:0.5;stroke-width:0;stroke-linejoin:round">
		<polygon fill="#404040" stroke="#000000" points="-0.14173954428186,0.202371435401 0.065060470045532,0.25751977236157 -0.074553394360031,0.33072358088428 -0.2766936393807,0.280122403295"/>
		<polygon fill="#404040" stroke="#000000" points="0.10013631070788,0.2665985016198 0.29476852366077,0.31850199349439 0.1512486261482,0.38754623810857 -0.039477553697683,0.33980231014251"/>
		<polygon fill="#404040" stroke="#000000" points="0.32784657162324,0.32706306982372 0.51135419534576,0.37599991492404 0.36457900473249,0.44122935429563 0.18432667411067,0.39610731443789"/>
		<polygon fill="#404040" stroke="#000000" points="0.54260059084163,0.38408643249419 0.71591089716842,0.43030391078178 0.56644359212575,0.4920262258939 0.39582540022837,0.44931587186579"/>
		<polygon fill="#FFA100" stroke="#000000" points="-0.29993867179046,0.29292728459894 -0.097798426769795,0.34352846218822 -0.22628803231496,0.41089948240555 -0.42383122163259,0.36430537548255"/>
		<polygon fill="#FFA100" stroke="#000000" points="-0.063478314311467,0.35188136842362 0.12724786553441,0.39962529638967 -0.0051468903495784,0.46331748171949 -0.19196791985663,0.41925238864094"/>
		<polygon fill="#FFA100" stroke="#000000" points="0.15968977229387,0.40752063196834 0.33994210291569,0.45264267182608 0.20424377983783,0.51294935922367 0.027295016409878,0.47121281729816"/>
		<polygon fill="#404040" stroke="#000000" points="0.37065603332097,0.46011707056841 0.54127422521836,0.50282742459652 0.40279659088115,0.5600115705213 0.23495771024312,0.52042375796599"/>
		<polygon fill="#FFA100" stroke="#000000" points="-0.4452315017572,0.37609244058616 -0.24768831243956,0.42268654750915 -0.36633227067631,0.48489519446637 -0.5593689579069,0.44185033909305"/>
		<polygon fill="#FFA100" stroke="#000000" points="-0.21411537793979,0.43039740937542 -0.027294348432744,0.47446250245397 -0.14980926783012,0.53340171722743 -0.33275933617654,0.49260605633265"/>
		<polygon fill="#FFA100" stroke="#000000" points="0.0045104978344689,0.48176691653053 0.18145926126243,0.52350345845603 0.055629473291784,0.57942439775972 -0.11800442156291,0.54070613130398"/>
		<polygon fill="#404040" stroke="#000000" points="0.21163223889969,0.53043276595203 0.37947111953773,0.57002057850734 0.25081410072348,0.62314931495157 0.085802450929052,0.58635370525573"/>
		<polygon fill="#404040" stroke="#000000" points="-0.57913592783686,0.45273642461344 -0.38609924060627,0.49578127998677 -0.49598744366276,0.55339901737769 -0.68462679904805,0.51351277478381"/>
		<polygon fill="#404040" stroke="#000000" points="-0.35326038077782,0.50292144896709 -0.1703103124314,0.54371710986187 -0.28401152634246,0.59841624609499 -0.46314858383431,0.56053918635801"/>
		<polygon fill="#404040" stroke="#000000" points="-0.13913809109524,0.55049460578293 0.03449580375945,0.58921287223867 -0.082504198209626,0.64120970155997 -0.25283930500631,0.60519374201605"/>
		<polygon fill="#404040" stroke="#000000" points="0.064125235370182,0.59565466681885 0.2291368851646,0.63245027651469 0.10929156346805,0.68194023492638 -0.052874766598893,0.64765149614014"/>
		<polygon fill="#404040" stroke="#000000" points="-0.64631140471815,-0.36814150944855 -0.54776650709172,-0.45132094086018 -0.5573734804806,-0.26840496177826 -0.65757234727132,-0.19004849276045"/>
		<polygon fill="#404040" stroke="#000000" points="-0.52955303228558,-0.46610373255502 -0.42362029981478,-0.55551906167947 -0.4312855221646,-0.36754662793627 -0.53916000567445,-0.28318775347309"/>
		<polygon fill="#404040" stroke="#000000" points="-0.40399677642246,-0.57144498426089 -0.28981306404168,-0.6678247715565 -0.29519479946337,-0.47455101064938 -0.41166199877228,-0.38347255051769"/>
		<polygon fill="#404040" stroke="#000000" points="-0.26860898556295,-0.68503188974388 -0.14517124082043,-0.7892227882046 -0.14786154393984,-0.59039234766474 -0.27399072098464,-0.49175812883675"/>
		<polygon fill="#FFFFFF" stroke="#000000" points="-0.65944999873563,-0.15750237574806 -0.55925113194491,-0.23585884476586 -0.56927023932064,-0.045095868646818 -0.67117648775355,0.027953308312073"/>
		<polygon fill="#FFFFFF" stroke="#000000" points="-0.54071417379413,-0.24972292315713 -0.43283969028428,-0.33408179762031 -0.44084662225173,-0.13772969978799 -0.55073328116985,-0.058959947038086"/>
		<polygon fill="#FFFFFF" stroke="#000000" points="-0.41283523242949,-0.34904196517 -0.29636803312058,-0.44012042530168 -0.30199945888581,-0.23787955843764 -0.42084216439694,-0.15268986733768"/>
		<polygon fill="#FFFFFF" stroke="#000000" points="-0.27471444099712,-0.45631215719978 -0.14858526395232,-0.55494637602777 -0.15140568867207,-0.34649912504922 -0.28034586676236,-0.25407129033574"/>
		<polygon fill="#FFFFFF" stroke="#000000" points="-0.67313397294735,0.061886985390097 -0.57122772451444,-0.011162191568793 -0.58168606769294,0.18796379792202 -0.68535548750825,0.25517155161273"/>
		<polygon fill="#FFFFFF" stroke="#000000" points="-0.55235602701732,-0.024012783731552 -0.4424693680992,-0.10278253648146 -0.45084138032806,0.10252233820688 -0.56281437019582,0.17511320575926"/>
		<polygon fill="#FFFFFF" stroke="#000000" points="-0.42206915007302,-0.11667231324413 -0.3032264445619,-0.20186200434408 -0.30912535025673,0.0099848442172291 -0.43044116230189,0.088632561444214"/>
		<polygon fill="#FFFFFF" stroke="#000000" points="-0.28110395321029,-0.21692247367596 -0.15216377512,-0.30935030838944 -0.1551239957647,-0.090571253109316 -0.28700285890512,-0.0050756251146495"/>
		<polygon fill="#404040" stroke="#000000" points="-0.68739801323387,0.29058353780507 -0.58372859341856,0.22337578411436 -0.59465570374803,0.43142706140485 -0.70014657495923,0.49220341157522"/>
		<polygon fill="#FFFFFF" stroke="#000000" points="-0.56451033965694,0.21164352068516 -0.45253734978918,0.13905265313278 -0.46129999383671,0.35393689946876 -0.57543744998641,0.41969479797565"/>
		<polygon fill="#FFFFFF" stroke="#000000" points="-0.43172568452066,0.12634950974136 -0.3104098724755,0.047701792514379 -0.31659577872606,0.26985566519373 -0.44048832856819,0.34123375607735"/>
		<polygon fill="#404040" stroke="#000000" points="-0.28779782184515,0.033901908533116 -0.15591895870473,-0.05159371946155 -0.15902963299687,0.17830481331847 -0.2939837280957,0.25605578121247"/>
		<polygon fill="#404040" stroke="#000000" points="-0.11731084732915,-0.79224854270394 0.070614473234396,-0.7184314575054 0.072312231043451,-0.52351908802918 -0.12000115044855,-0.59341810216408"/>
		<polygon fill="#404040" stroke="#000000" points="0.10323336924555,-0.70608922028088 0.28106691997321,-0.6362361833093 0.28668662795082,-0.44511524745873 0.10493112705461,-0.51117685080467"/>
		<polygon fill="#404040" stroke="#000000" points="0.31193845299737,-0.62455517206983 0.48047188426645,-0.55835522297576 0.48960198452105,-0.37090247914354 0.31755816097498,-0.43343423621926"/>
		<polygon fill="#404040" stroke="#000000" points="0.50973279932867,-0.54728368664858 0.66967706996223,-0.4844575607334 0.6819531723526,-0.30055348020234 0.51886289958326,-0.35983094281636"/>
		<polygon fill="#00D800" stroke="#000000" points="-0.12008169181281,-0.55786829748497 0.0722316896792,-0.48796928335008 0.074009190670418,-0.28390193752677 -0.12290211653256,-0.34942104650643"/>
		<polygon fill="#00D800" stroke="#000000" points="0.10559942213564,-0.47634524829074 0.28735492303186,-0.4102836449448 0.2932311761412,-0.21043785259651 0.10737692312686,-0.27227790246743"/>
		<polygon fill="#00D800" stroke="#000000" points="0.31889538659091,-0.39929623197055 0.49093921013698,-0.33676447489483 0.50047472580665,-0.14098802926001 0.32477163970025,-0.19945043962226"/>
		<polygon fill="#404040" stroke="#000000" points="0.52079850161384,-0.32636277815571 0.68388877438318,-0.26708531554169 0.69669549714177,-0.075232193219906 0.5303340172835,-0.13058633252089"/>
		<polygon fill="#00D800" stroke="#000000" points="-0.12298659539948,-0.31215662634094 0.073924711803502,-0.24663751736128 0.075787709364872,-0.032754673130949 -0.12594681604417,-0.093377571060811"/>
		<polygon fill="#00D800" stroke="#000000" points="0.10807647696946,-0.23581472033453 0.2939307299838,-0.17397467046361 0.30008150587544,0.035207381219296 0.10993947453083,-0.0219318761042"/>
		<polygon fill="#00D800" stroke="#000000" points="0.32616971034135,-0.16375812136675 0.50187279644774,-0.1052957110045 0.51184134393748,0.099371436876242 0.33232048623298,0.04542393031615"/>
		<polygon fill="#404040" stroke="#000000" points="0.53235531333521,-0.095635858129591 0.69871679319348,-0.040281718828612 0.71208929944321,0.16004721197124 0.54232386082495,0.10903128975115"/>
		<polygon fill="#404040" stroke="#000000" points="-0.12603552833992,-0.054271421611618 0.075698997069123,0.0063514763182446 0.07765381169533,0.23077544812898 -0.12914620263207,0.17562711116841"/>
		<polygon fill="#404040" stroke="#000000" points="0.11067253280694,0.016280275418638 0.30081456415154,0.073419532742133 0.30725956038604,0.29260773910396 0.11262734743315,0.24070424722937"/>
		<polygon fill="#404040" stroke="#000000" points="0.33378365136335,0.082779188838352 0.51330450906785,0.13672669539844 0.52373627132036,0.3509042403005 0.34022864759784,0.30196739520018"/>
		<polygon fill="#404040" stroke="#000000" points="0.54443667060002,0.14556478229677 0.71420210921828,0.19658070451685 0.72817873917931,0.40595980548641 0.55486843285253,0.35974232719882"/>
	</g>
</svg>