<?xml version="1.0" encoding="UTF-8" standalone="no"?>
<!DOCTYPE svg PUBLIC "-//W3C//DTD SVG 1.1//EN" "http://www.w3.org/Graphics/SVG/1.1/DTD/svg11.dtd">
<svg version="1.1" xmlns="http://www.w3.org/2000/svg" width="128" height="128" viewBox="-0.9 -0.9 1.8 1.8">
	<g style="opacity:0.7;stroke-opacity:0.5;stroke-width:0;stroke-linejoin:round">
		<polygon fill="#404040" stroke="#000000" points="0.73253660806184,-0.42906838758485 0.55899831095487,-0.50415151952151 0.54606758826072,-0.31570154526316 0.71422433884775,-0.23709557453848"/>
		<polygon fill="#404040" stroke="#000000" points="0.52969266451761,-0.51731782837661 0.3663000773379,-0.58801131439788 0.35816957930812,-0.40300288920618 0.51676194182345,-0.32886785411827"/>
		<polygon fill="#404040" stroke="#000000" points="0.33866354798567,-0.60042853349541 0.18455220542351,-0.66710639342277 0.18071163781042,-0.48545510538783 0.33053304995589,-0.41542010830372"/>
		<polygon fill="#404040" stroke="#000000" points="0.1584460429437,-0.67883672832617 0.012846976454894,-0.74183166432174 0.012846976454894,-0.5634513759358 0.15460547533061,-0.49718544029124"/>
		<polygon fill="#404040" stroke="#000000" points="0.7115295883553,-0.20443220270509 0.54337283776826,-0.28303817342977 0.53114460140122,-0.10482610569771 0.6942413282403,-0.02319437313021"/>
		<polygon fill="#404040" stroke="#000000" points="0.51494149367789,-0.29677793500113 0.35634913116256,-0.37091297008903 0.34864810820702,-0.19567719435304 0.50271325731085,-0.11856586726906"/>
		<polygon fill="#404040" stroke="#000000" points="0.32949419742118,-0.38389161603796 0.17967278527571,-0.45392661312208 0.1760296212454,-0.2816121259686 0.32179317446565,-0.20865584030197"/>
		<polygon fill="#404040" stroke="#000000" points="0.15426660171769,-0.46620572465773 0.012508102841975,-0.53247166030229 0.012508102841975,-0.36301950449084 0.15062343768738,-0.29389123750425"/>
		<polygon fill="#404040" stroke="#000000" points="0.69169399804991,0.007690116758645 0.52859727121082,-0.073941615808855 0.51701578916798,0.094844773356622 0.67534619045317,0.17906891065887"/>
		<polygon fill="#404040" stroke="#000000" points="0.50098976280902,-0.088175020544924 0.34692461370519,-0.1652863476289 0.33961991238481,0.0009311808459475 0.48940828076618,0.080611368620554"/>
		<polygon fill="#404040" stroke="#000000" points="0.32080832548736,-0.17875155029047 0.17504477226711,-0.2517078359571 0.17158417346867,-0.088028324896076 0.31350362416698,-0.01253402181562"/>
		<polygon fill="#404040" stroke="#000000" points="0.15030198203764,-0.26446543397993 0.012186647192241,-0.33359370096652 0.012186647192241,-0.17241574817774 0.14684138323921,-0.10078592291891"/>
		<polygon fill="#404040" stroke="#000000" points="0.67293449717252,0.208316089615 0.51460409588734,0.12409195231275 0.50361937963677,0.28418118658202 0.6574524354788,0.37061901888898"/>
		<polygon fill="#404040" stroke="#000000" points="0.48777419061441,0.10943469557202 0.33798582223304,0.029754507797414 0.3310476158892,0.18763249074856 0.47678947436384,0.26952392984128"/>
		<polygon fill="#404040" stroke="#000000" points="0.31256867218714,0.015868501854738 0.17064922148883,-0.059625801225718 0.16735780037103,0.096051938563487 0.30563046584329,0.17374648480588"/>
		<polygon fill="#404040" stroke="#000000" points="0.14653603628641,-0.072799906677209 0.011881300239438,-0.14442973193604 0.011881300239438,0.0090656077422162 0.14324461516861,0.082877833111996"/>
		<polygon fill="#404040" stroke="#000000" points="-0.012508102841975,-0.74154304670565 -0.15810716933078,-0.67854811071008 -0.15426660171769,-0.49689682267515 -0.012508102841975,-0.56316275831971"/>
		<polygon fill="#404040" stroke="#000000" points="-0.18417368215145,-0.66681017543835 -0.33828502471361,-0.60013231551099 -0.33015452668383,-0.41512389031929 -0.18033311453836,-0.48515888740341"/>
		<polygon fill="#404040" stroke="#000000" points="-0.3658765281028,-0.58770764830376 -0.52926911528252,-0.5170141622825 -0.51633839258836,-0.32856418802416 -0.35774603007303,-0.40269922311207"/>
		<polygon fill="#404040" stroke="#000000" points="-0.55852346861488,-0.50384068080492 -0.73206176572185,-0.42875754886826 -0.71374949650776,-0.23678473582189 -0.54559274592072,-0.31539070654657"/>
		<polygon fill="#404040" stroke="#000000" points="-0.012186647192242,-0.53221910165447 -0.15394514606795,-0.46595316600991 -0.15030198203765,-0.29363867885642 -0.012186647192242,-0.36276694584301"/>
		<polygon fill="#404040" stroke="#000000" points="-0.17931473889995,-0.4536688523648 -0.32913615104543,-0.38363385528068 -0.32143512808989,-0.20839807954469 -0.17567157486964,-0.28135436521132"/>
		<polygon fill="#404040" stroke="#000000" points="-0.35594967115566,-0.37065035608938 -0.514542033671,-0.29651532100147 -0.50231379730395,-0.11830325326941 -0.34824864820013,-0.19541458035339"/>
		<polygon fill="#404040" stroke="#000000" points="-0.54292636508462,-0.28277119444364 -0.71108311567166,-0.20416522371896 -0.69379485555666,-0.022927394144079 -0.53069812871757,-0.10455912671158"/>
		<polygon fill="#404040" stroke="#000000" points="-0.011881300239439,-0.33337297523661 -0.14999663508484,-0.26424470825003 -0.14653603628641,-0.10056519718901 -0.011881300239439,-0.17219502244784"/>
		<polygon fill="#404040" stroke="#000000" points="-0.17470558675046,-0.25148389324411 -0.32046913997071,-0.17852760757749 -0.31316443865033,-0.012310079102635 -0.17124498795203,-0.087804382183091"/>
		<polygon fill="#404040" stroke="#000000" points="-0.34654725070027,-0.16505968345032 -0.50061239980409,-0.087948356366339 -0.48903091776125,0.080838032799139 -0.33924254937989,0.0011578450245322"/>
		<polygon fill="#404040" stroke="#000000" points="-0.52817671307371,-0.073712874214613 -0.6912734399128,0.0079188583528877 -0.67492563231606,0.17929765225311 -0.51659523103087,0.095073514950865"/>
		<polygon fill="#404040" stroke="#000000" points="-0.011590880729044,-0.14423716722037 -0.14624561677601,-0.072607341961537 -0.14295419565821,0.083070397827668 -0.011590880729044,0.0092581724578883"/>
		<polygon fill="#404040" stroke="#000000" points="-0.17032744632183,-0.059431662123194 -0.31224689702013,0.016062640957262 -0.30530869067629,0.1739406239084 -0.16703602520403,0.096246077666011"/>
		<polygon fill="#404040" stroke="#000000" points="-0.33762877724127,0.029949618207836 -0.48741714562264,0.10962980598244 -0.47643242937207,0.26971904025171 -0.33069057089743,0.18782760115898"/>
		<polygon fill="#404040" stroke="#000000" points="-0.51420727128941,0.12428727834258 -0.6725376725746,0.20851141564483 -0.65705561088088,0.37081434491881 -0.50322255503884,0.28437651261184"/>
		<polygon fill="#404040" stroke="#000000" points="-0.64454763078374,0.39256673314612 -0.51443364897617,0.48394037365463 -0.35994218342468,0.39256673314612 -0.4907145749417,0.30612890083916"/>
		<polygon fill="#404040" stroke="#000000" points="-0.49075537325295,0.50006513374437 -0.35299320509746,0.59680977758541 -0.19802409797926,0.50006513374437 -0.33626390770147,0.40869149323586"/>
		<polygon fill="#404040" stroke="#000000" points="-0.32792310458637,0.61388236179266 -0.18181798241337,0.71648591541868 -0.026588359831327,0.61388236179266 -0.17295399746817,0.51713771795161"/>
		<polygon fill="#404040" stroke="#000000" points="-0.15522962258204,0.7345924248821 5.8593745679857E-17,0.84360373583452 0.15522962258204,0.7345924248821 3.1982843198653E-17,0.63198887125607"/>
		<polygon fill="#404040" stroke="#000000" points="-0.46424581992031,0.29087516572617 -0.3334734284033,0.37731299803313 -0.1873272606696,0.29087516572616 -0.31850396144567,0.20898372663344"/>
		<polygon fill="#FEFE00" stroke="#000000" points="-0.30971769271426,0.39256673314612 -0.17147788299206,0.48394037365463 -0.025112245355211,0.39256673314612 -0.16357152498057,0.30612890083916"/>
		<polygon fill="#FEFE00" stroke="#000000" points="-0.14636563763684,0.50006513374437 2.5737838685137E-17,0.59680977758541 0.14636563763684,0.50006513374437 2.0816681711722E-18,0.40869149323586"/>
		<polygon fill="#404040" stroke="#000000" points="0.026588359831327,0.61388236179266 0.18181798241337,0.71648591541868 0.32792310458637,0.61388236179266 0.17295399746817,0.51713771795161"/>
		<polygon fill="#404040" stroke="#000000" points="-0.29342739043685,0.19453229620531 -0.16225068966078,0.27642373529804 -0.02379141003542,0.19453229620531 -0.15515472496459,0.11683774996292"/>
		<polygon fill="#FEFE00" stroke="#000000" points="-0.13845927962536,0.29087516572616 -2.0816681711722E-18,0.37731299803313 0.13845927962536,0.29087516572616 -2.3249339142077E-17,0.20898372663344"/>
		<polygon fill="#FEFE00" stroke="#000000" points="0.025112245355211,0.39256673314612 0.17147788299206,0.48394037365463 0.30971769271426,0.39256673314612 0.16357152498057,0.30612890083916"/>
		<polygon fill="#404040" stroke="#000000" points="0.19802409797926,0.50006513374437 0.35299320509746,0.59680977758541 0.49075537325295,0.50006513374437 0.33626390770147,0.40869149323586"/>
		<polygon fill="#404040" stroke="#000000" points="-0.13136331492917,0.10312694768485 -2.7412675484421E-17,0.18082149392724 0.13136331492917,0.10312694768485 -4.6464890614227E-17,0.029314722315068"/>
		<polygon fill="#404040" stroke="#000000" points="0.02379141003542,0.19453229620531 0.16225068966078,0.27642373529804 0.29342739043685,0.19453229620531 0.15515472496459,0.11683774996292"/>
		<polygon fill="#404040" stroke="#000000" points="0.1873272606696,0.29087516572616 0.3334734284033,0.37731299803313 0.46424581992031,0.29087516572616 0.31850396144567,0.20898372663344"/>
		<polygon fill="#404040" stroke="#000000" points="0.35994218342468,0.39256673314612 0.51443364897617,0.48394037365463 0.64454763078374,0.39256673314612 0.4907145749417,0.30612890083916"/>
	</g>
	<g style="stroke-width:0.1;stroke-linejoin:round;opacity:0.1">
		<polygon fill="#000000" stroke="#000000" points="0.70405037145575,-0.41272706360467 -4.9165444344952E-17,-0.71734170954349 -4.447846227608E-17,0.015311693356 0.62948028357061,0.36901272915735"/>
		<polygon fill="#000000" stroke="#000000" points="-4.9165444344952E-17,-0.71734170954349 -0.70405037145575,-0.41272706360467 -0.62948028357061,0.36901272915735 -4.447846227608E-17,0.015311693356"/>
		<polygon fill="#000000" stroke="#000000" points="-0.62948028357061,0.36901272915735 5.5589468959362E-17,0.81107056444244 0.62948028357061,0.36901272915735 -4.447846227608E-17,0.015311693356"/>
	</g>
	<g style="stroke-width:0.1;stroke-linejoin:round;opacity:0.1">
		<polygon fill="#000000" stroke="#000000" points="-4.9165444344952E-17,-0.71734170954349 0.70405037145575,-0.41272706360467 6.3108540577985E-17,-0.021725090572532 -0.70405037145575,-0.41272706360467"/>
		<polygon fill="#000000" stroke="#000000" points="6.3108540577985E-17,-0.021725090572532 0.70405037145575,-0.41272706360467 0.62948028357061,0.36901272915735 5.5589468959362E-17,0.81107056444244"/>
		<polygon fill="#000000" stroke="#000000" points="-0.70405037145575,-0.41272706360467 6.3108540577985E-17,-0.021725090572532 5.5589468959362E-17,0.81107056444244 -0.62948028357061,0.36901272915735"/>
	</g>
	<g style="opacity:0.7;stroke-opacity:0.5;stroke-width:0;stroke-linejoin:round">
		<polygon fill="#404040" stroke="#000000" points="-5.0456946968941E-17,-0.75168776095043 0.1455990664888,-0.68869282495487 -2.9527485053695E-17,-0.62201496502752 -0.1455990664888,-0.68869282495487"/>
		<polygon fill="#404040" stroke="#000000" points="0.17206671930342,-0.67689678771809 0.32617806186559,-0.61021892779074 0.18083531822485,-0.53952544176947 0.02646765281462,-0.61021892779074"/>
		<polygon fill="#404040" stroke="#000000" points="0.35424256102624,-0.59771060497921 0.51763514820595,-0.52701711895794 0.3728527986441,-0.45193398702129 0.2088998173855,-0.52701711895794"/>
		<polygon fill="#404040" stroke="#000000" points="0.54744564329311,-0.51372992300301 0.72098394040008,-0.43864679106635 0.57712298420591,-0.35875205626506 0.40266329373125,-0.43864679106635"/>
		<polygon fill="#404040" stroke="#000000" points="-0.17206671930342,-0.67689678771809 -0.02646765281462,-0.61021892779074 -0.18083531822485,-0.53952544176947 -0.32617806186559,-0.61021892779074"/>
		<polygon fill="#FFFFFF" stroke="#000000" points="-2.5604710238939E-17,-0.59771060497921 0.15436766541023,-0.52701711895794 -2.076057586941E-18,-0.45193398702129 -0.15436766541023,-0.52701711895794"/>
		<polygon fill="#FFFFFF" stroke="#000000" points="0.1824818810977,-0.51372992300301 0.3464348623563,-0.43864679106635 0.19237432806864,-0.35875205626506 0.028114215687475,-0.43864679106635"/>
		<polygon fill="#404040" stroke="#000000" points="0.37635438601767,-0.42450555890102 0.55081407649233,-0.34461082409973 0.39742880530021,-0.2594266581626 0.22229385173,-0.34461082409973"/>
		<polygon fill="#404040" stroke="#000000" points="-0.35424256102624,-0.59771060497921 -0.2088998173855,-0.52701711895794 -0.3728527986441,-0.45193398702129 -0.51763514820595,-0.52701711895794"/>
		<polygon fill="#FFFFFF" stroke="#000000" points="-0.1824818810977,-0.51372992300301 -0.028114215687475,-0.43864679106635 -0.19237432806864,-0.35875205626506 -0.3464348623563,-0.43864679106635"/>
		<polygon fill="#FFFFFF" stroke="#000000" points="2.3509483833738E-18,-0.42450555890102 0.16426011238116,-0.34461082409973 2.899503006161E-17,-0.2594266581626 -0.16426011238116,-0.34461082409973"/>
		<polygon fill="#404040" stroke="#000000" points="0.19423958662374,-0.32953038920601 0.36937454019395,-0.24434622326888 0.20548673661059,-0.15332936260805 0.029979474242575,-0.24434622326888"/>
		<polygon fill="#404040" stroke="#000000" points="-0.54744564329311,-0.51372992300301 -0.40266329373125,-0.43864679106635 -0.57712298420591,-0.35875205626506 -0.72098394040008,-0.43864679106635"/>
		<polygon fill="#404040" stroke="#000000" points="-0.37635438601767,-0.42450555890102 -0.22229385173,-0.34461082409973 -0.39742880530021,-0.2594266581626 -0.55081407649233,-0.34461082409973"/>
		<polygon fill="#404040" stroke="#000000" points="-0.19423958662374,-0.32953038920601 -0.029979474242575,-0.24434622326888 -0.20548673661059,-0.15332936260805 -0.36937454019395,-0.24434622326888"/>
		<polygon fill="#404040" stroke="#000000" points="3.403028595879E-17,-0.22822969222918 0.17550726236802,-0.13721283156835 6.4452437781923E-17,-0.03974297905556 -0.17550726236802,-0.13721283156835"/>
		<polygon fill="#404040" stroke="#000000" points="0.014996196759518,-0.013803196800016 0.19050345912754,-0.1112730493128 0.18495309336739,0.091694288922536 0.014996196759518,0.1929357208424"/>
		<polygon fill="#404040" stroke="#000000" points="0.22002315776914,-0.12823308729218 0.38391096135249,-0.21924994795301 0.37352211424576,-0.020009660310328 0.21447279200899,0.074734250943159"/>
		<polygon fill="#404040" stroke="#000000" points="0.41153275115519,-0.23512076897326 0.5649180223473,-0.32030493491039 0.55030305156239,-0.12473292556587 0.40114390404847,-0.035880481330575"/>
		<polygon fill="#404040" stroke="#000000" points="0.59081939843175,-0.33518829641362 0.73468035462592,-0.41508303121491 0.71636808541183,-0.22311021816854 0.57620442764684,-0.1396162870691"/>
		<polygon fill="#404040" stroke="#000000" points="0.014536484689461,0.22798827049012 0.18449338129734,0.12674683857026 0.17928331117002,0.31727015026868 0.014536484689461,0.42163105674694"/>
		<polygon fill="#404040" stroke="#000000" points="0.21312084204306,0.10917887897482 0.37217016427983,0.014434967721335 0.36239843042605,0.2018400805115 0.20791077191575,0.29970219067325"/>
		<polygon fill="#404040" stroke="#000000" points="0.39901197335699,-0.0020382032423368 0.54817112087091,-0.090890647477637 0.53439808680755,0.09341488321304 0.3892402395032,0.18536690954783"/>
		<polygon fill="#404040" stroke="#000000" points="0.57338943668508,-0.10636836010563 0.71355309445007,-0.18986229120507 0.69626483433508,-0.0086244616301859 0.55961640262172,0.077937170585051"/>
		<polygon fill="#404040" stroke="#000000" points="0.01410411946645,0.45452803818575 0.17885094594701,0.35016713170749 0.17395080675288,0.52935680175718 0.01410411946645,0.63628087536533"/>
		<polygon fill="#404040" stroke="#000000" points="0.20663858742496,0.33209490008679 0.36112624593526,0.23423278992505 0.35191822516698,0.41082685158018 0.20173844823083,0.51128457013648"/>
		<polygon fill="#404040" stroke="#000000" points="0.38723080884076,0.2172543034089 0.53238865614511,0.12530227707411 0.51938684249125,0.29928762804272 0.37802278807249,0.39384836506403"/>
		<polygon fill="#404040" stroke="#000000" points="0.55695868129877,0.10932108157837 0.69360711301213,0.022759449363129 0.67725930541539,0.19413824326336 0.54395686764491,0.28330643254698"/>
		<polygon fill="#404040" stroke="#000000" points="0.013696731404298,0.6672153717978 0.17354341869073,0.56029129818964 0.16892635398634,0.72912942057796 0.013696731404298,0.83814073153039"/>
		<polygon fill="#404040" stroke="#000000" points="0.20053916658421,0.54180356637486 0.35071894352037,0.44134584781856 0.34202722405282,0.60803813513716 0.19592210187982,0.71064168876318"/>
		<polygon fill="#404040" stroke="#000000" points="0.37612558573433,0.42394563937173 0.51748964015309,0.32938490235043 0.50519603442228,0.49389328284929 0.36743386626679,0.59063792669034"/>
		<polygon fill="#404040" stroke="#000000" points="0.541443584526,0.3129789278625 0.67474602229648,0.22381073857888 0.65926396060276,0.38611366785285 0.52914997879519,0.47748730836137"/>
		<polygon fill="#404040" stroke="#000000" points="-0.73500658684026,-0.41476545507096 -0.59114563064609,-0.33487072026966 -0.57653065986118,-0.13929871092515 -0.71669431762617,-0.22279264202459"/>
		<polygon fill="#404040" stroke="#000000" points="-0.56529091561303,-0.31998126329585 -0.41190564442091,-0.23479709735871 -0.40151679731419,-0.03555680971603 -0.55067594482811,-0.12440925395133"/>
		<polygon fill="#404040" stroke="#000000" points="-0.38433788617719,-0.21892109054778 -0.22045008259383,-0.12790422988695 -0.21489971683369,0.075063108348394 -0.37394903907046,-0.019680802905093"/>
		<polygon fill="#404040" stroke="#000000" points="-0.19099319728284,-0.11094026289453 -0.015485934914825,-0.013470410381744 -0.015485934914825,0.19326850726067 -0.1854428315227,0.092027075340808"/>
		<polygon fill="#404040" stroke="#000000" points="-0.71386326145463,-0.18959161169485 -0.57369960368964,-0.10609768059541 -0.55992656962628,0.078207850095268 -0.69657500133963,-0.0083537821199687"/>
		<polygon fill="#404040" stroke="#000000" points="-0.54852417677176,-0.090617154939446 -0.39936502925783,-0.0017647107041463 -0.38959329540405,0.18564040208602 -0.5347511427084,0.09368837575123"/>
		<polygon fill="#404040" stroke="#000000" points="-0.3725726640204,0.014710102919122 -0.21352334178363,0.10945401417261 -0.20831327165632,0.29997732587103 -0.36280093016662,0.20211521570929"/>
		<polygon fill="#404040" stroke="#000000" points="-0.18495309336739,0.12702208632541 -0.014996196759518,0.22826351824527 -0.014996196759518,0.42190630450209 -0.17974302324008,0.31754539802383"/>
		<polygon fill="#404040" stroke="#000000" points="-0.69390234777179,0.022989439692693 -0.55725391605844,0.10955107190793 -0.54425210240457,0.28353642287655 -0.67755454017505,0.19436823359292"/>
		<polygon fill="#404040" stroke="#000000" points="-0.53272340257619,0.1255324574288 -0.38756555527184,0.21748448376359 -0.37835753450357,0.39407854541872 -0.51972158892233,0.29951780839742"/>
		<polygon fill="#404040" stroke="#000000" points="-0.36150635313298,0.23446181419516 -0.20701869462268,0.3323239243569 -0.20211855542855,0.51151359440659 -0.3522983323647,0.41105587585029"/>
		<polygon fill="#404040" stroke="#000000" points="-0.17928331117002,0.35039329351307 -0.014536484689461,0.45475419999133 -0.014536484689461,0.63650703717091 -0.17438317197589,0.52958296356276"/>
		<polygon fill="#404040" stroke="#000000" points="-0.67502735664615,0.22400533721637 -0.54172491887567,0.3131735265 -0.52943131314486,0.47768190699886 -0.65954529495243,0.38630826649034"/>
		<polygon fill="#404040" stroke="#000000" points="-0.51780745364691,0.329577600011 -0.37644339922815,0.4241383370323 -0.36775167976061,0.5908306243509 -0.5055138479161,0.49408598050986"/>
		<polygon fill="#404040" stroke="#000000" points="-0.35107847188182,0.44153518620706 -0.20089869494567,0.54199290476336 -0.19628163024127,0.71083102715169 -0.34238675241427,0.60822747352566"/>
		<polygon fill="#404040" stroke="#000000" points="-0.17395080675288,0.5604754661906 -0.01410411946645,0.66739953979876 -0.01410411946645,0.83832489953136 -0.16933374204849,0.72931358857893"/>
	</g>
</svg>