<?xml version="1.0" encoding="UTF-8" standalone="no"?>
<!DOCTYPE svg PUBLIC "-//W3C//DTD SVG 1.1//EN" "http://www.w3.org/Graphics/SVG/1.1/DTD/svg11.dtd">
<svg version="1.1" xmlns="http://www.w3.org/2000/svg" width="128" height="128" viewBox="-0.9 -0.9 1.8 1.8">
	<g style="stroke-width:0.1;stroke-linejoin:round;opacity:1">
		<polygon fill="#000000" stroke="#000000" points="-4.9297190568247E-17,-0.72390664592705 0.70512466348166,-0.40842792413923 6.3111618808599E-17,-0.0045433903110194 -0.70512466348166,-0.40842792413923"/>
		<polygon fill="#000000" stroke="#000000" points="6.3111618808599E-17,-0.0045433903110194 0.70512466348166,-0.40842792413923 0.62862398386816,0.36411659113961 5.5422001371037E-17,0.8138466849856"/>
		<polygon fill="#000000" stroke="#000000" points="-0.70512466348166,-0.40842792413923 6.3111618808599E-17,-0.0045433903110194 5.5422001371037E-17,0.8138466849856 -0.62862398386816,0.36411659113961"/>
	</g>
	<g style="opacity:1;stroke-opacity:0.5;stroke-width:0;stroke-linejoin:round">
		<polygon fill="#FFFFFF" stroke="#000000" points="-4.9571247741134E-17,-0.75399304024878 0.19644305722816,-0.6661027595537 -1.7015431601504E-17,-0.57129502777762 -0.19644305722816,-0.6661027595537"/>
		<polygon fill="#FFFFFF" stroke="#000000" points="0.23252958367818,-0.64929697304085 0.44443379574426,-0.55448924126478 0.24862410232216,-0.451913941481 0.036086526450026,-0.55448924126478"/>
		<polygon fill="#FFFFFF" stroke="#000000" points="0.48348662410794,-0.53629989130069 0.71275208243009,-0.4337245915169 0.51837144007472,-0.32238635703325 0.28767693068583,-0.4337245915169"/>
		<polygon fill="#FFFFFF" stroke="#000000" points="-0.23252958367818,-0.64929697304085 -0.036086526450026,-0.55448924126478 -0.24862410232216,-0.451913941481 -0.44443379574426,-0.55448924126478"/>
		<polygon fill="#FFFFFF" stroke="#000000" points="-1.1930814570246E-17,-0.53629989130069 0.21253757587213,-0.4337245915169 1.3139028977717E-17,-0.32238635703325 -0.21253757587213,-0.4337245915169"/>
		<polygon fill="#FFFFFF" stroke="#000000" points="0.25171777514805,-0.41397316583332 0.48241228453693,-0.30263493134967 0.27068488186415,-0.18136074005288 0.039180199275914,-0.30263493134967"/>
		<polygon fill="#FFFFFF" stroke="#000000" points="-0.48348662410794,-0.53629989130069 -0.28767693068583,-0.4337245915169 -0.51837144007472,-0.32238635703325 -0.71275208243009,-0.4337245915169"/>
		<polygon fill="#FFFFFF" stroke="#000000" points="-0.25171777514805,-0.41397316583332 -0.039180199275914,-0.30263493134967 -0.27068488186414,-0.18136074005288 -0.48241228453693,-0.30263493134967"/>
		<polygon fill="#0000F2" stroke="#000000" points="1.9235244947592E-17,-0.2811107654609 0.23150468258823,-0.15983657416411 6.3255849058211E-17,-0.027234261908407 -0.23150468258823,-0.15983657416411"/>
		<polygon fill="#EE0000" stroke="#000000" points="0.01956250970928,0.0066391471126205 0.25106719229751,-0.12596316514309 0.24127095308112,0.13666127913177 0.01956250970928,0.2751255386978"/>
		<polygon fill="#0000F2" stroke="#000000" points="0.28945319455613,-0.14887943296483 0.50118059722892,-0.27015362426162 0.48319363168252,-0.013370378414065 0.27965695533974,0.11374501131003"/>
		<polygon fill="#0000F2" stroke="#000000" points="0.53640752051007,-0.29118724667684 0.73078816286544,-0.40252548116049 0.70593161614394,-0.15151086357163 0.51842055496367,-0.034404000829283"/>
		<polygon fill="#0000F2" stroke="#000000" points="0.018768318691062,0.320106743662 0.24047676206291,0.18164248409596 0.2314759305231,0.42294308210495 0.018768318691062,0.56586137910558"/>
		<polygon fill="#0000F2" stroke="#000000" points="0.27732928476721,0.15780788542054 0.48086596110999,0.030692495696446 0.46428193383772,0.26744729134071 0.26832845322741,0.39910848342953"/>
		<polygon fill="#0000F2" stroke="#000000" points="0.51480482927194,0.008739634147561 0.70231589045221,-0.10836722859479 0.67932463149227,0.12381072196189 0.49822080199967,0.24549442979183"/>
		<polygon fill="#0000F2" stroke="#000000" points="0.018036096395759,0.60717553994089 0.2307437082278,0.46425724294026 0.22244518888102,0.68672976363017 0.018036096395759,0.83296809163779"/>
		<polygon fill="#0000F2" stroke="#000000" points="0.2661808151581,0.43972162252112 0.46213429576841,0.3080604304323 0.4467952291894,0.52704207546131 0.25788229581133,0.66219414321102"/>
		<polygon fill="#0000F2" stroke="#000000" points="0.49487559305409,0.28538911050232 0.6759794225467,0.16370540267238 0.65465108176912,0.37909032174708 0.47953652647508,0.50437075553133"/>
		<polygon fill="#EE0000" stroke="#000000" points="-0.73139430238089,-0.40201648454943 -0.53701366002552,-0.29067825006578 -0.51902669447912,-0.033895004218221 -0.70653775565939,-0.15100186696057"/>
		<polygon fill="#EE0000" stroke="#000000" points="-0.50190330837568,-0.26963822440039 -0.2901759057029,-0.1483640331036 -0.28037966648651,0.11426041117126 -0.48391634282929,-0.012854978552832"/>
		<polygon fill="#FFFFFF" stroke="#000000" points="-0.25193156634602,-0.12544593449806 -0.020426883757785,0.0071563777576491 -0.020426883757785,0.27564276934283 -0.24213532712963,0.1371785097768"/>
		<polygon fill="#EE0000" stroke="#000000" points="-0.70288123442465,-0.10796338932235 -0.51537017324438,0.0091434734199955 -0.49878614597211,0.24589826906426 -0.67988997546471,0.12421456123432"/>
		<polygon fill="#EE0000" stroke="#000000" points="-0.4815350666158,0.031093595905098 -0.27799839027302,0.15820898562919 -0.26899755873321,0.39950958363818 -0.46495103934353,0.26784839154937"/>
		<polygon fill="#EE0000" stroke="#000000" points="-0.24127095308112,0.18203548739902 -0.01956250970928,0.32049974696505 -0.01956250970928,0.56625438240863 -0.23227012154132,0.42333608540801"/>
		<polygon fill="#EE0000" stroke="#000000" points="-0.67650788791716,0.16402276084482 -0.49540405842455,0.28570646867476 -0.48006499184554,0.50468811370377 -0.65517954713959,0.37940767991952"/>
		<polygon fill="#EE0000" stroke="#000000" points="-0.4627555205242,0.30836844887297 -0.26680203991389,0.44002964096178 -0.25850352056711,0.66250216165169 -0.44741645394519,0.52735009390197"/>
		<polygon fill="#EE0000" stroke="#000000" points="-0.2314759305231,0.46455018685265 -0.018768318691062,0.60746848385327 -0.018768318691062,0.83326103555017 -0.22317741117633,0.68702270754255"/>
	</g>
</svg>