<?xml version="1.0" encoding="UTF-8" standalone="no"?>
<!DOCTYPE svg PUBLIC "-//W3C//DTD SVG 1.1//EN" "http://www.w3.org/Graphics/SVG/1.1/DTD/svg11.dtd">
<svg version="1.1" xmlns="http://www.w3.org/2000/svg" width="250" height="250" viewBox="-0.9 -0.9 1.8 1.8">
	<g style="stroke-width:0.1;stroke-linejoin:round;opacity:1">
		<polygon fill="#000000" stroke="#000000" points="-0.5229918410656,-0.29799572518034 -0.36158769903757,-0.69472651471175 -0.39066231501312,0.28773443022997 -0.55764909158283,0.53797591966596"/>
		<polygon fill="#000000" stroke="#000000" points="-0.39066231501312,0.28773443022997 0.64005004970648,0.36469436755529 0.30747005442516,0.59074907652438 -0.55764909158283,0.53797591966596"/>
		<polygon fill="#000000" stroke="#000000" points="-0.36158769903757,-0.69472651471175 0.59480929172472,-0.57382515379555 0.64005004970648,0.36469436755529 -0.39066231501312,0.28773443022997"/>
	</g>
	<g style="opacity:1;stroke-opacity:0.5;stroke-width:0;stroke-linejoin:round">
		<polygon fill="#00D800" stroke="#000000" points="-0.55421135288386,-0.30744288091599 -0.52243137581634,-0.38555794806894 -0.52969796350005,-0.19893927025758 -0.56167514950038,-0.12740775864889"/>
		<polygon fill="#FEFE00" stroke="#000000" points="-0.51654777974215,-0.3993391117891 -0.48191144242007,-0.48447510197873 -0.48891358898587,-0.29079188898653 -0.52381436742586,-0.21272043397773"/>
		<polygon fill="#FFFFFF" stroke="#000000" points="-0.47548077832197,-0.49953574155917 -0.43758486933481,-0.59268374695469 -0.44423840243142,-0.39140378695559 -0.48248292488777,-0.30585252856696"/>
		<polygon fill="#FFA100" stroke="#000000" points="-0.43052702656729,-0.60921093037736 -0.38888869598252,-0.71155779434318 -0.3950875839524,-0.50209104377309 -0.43718055966389,-0.40793097037827"/>
		<polygon fill="#FFA100" stroke="#000000" points="-0.56299636621939,-0.094504387699604 -0.53101918021906,-0.16603589930829 -0.53852917308465,0.026833849183214 -0.57069953436195,0.091304643500423"/>
		<polygon fill="#FFA100" stroke="#000000" points="-0.52509503138545,-0.17856531273461 -0.49019425294546,-0.2566367677434 -0.49744185680378,-0.056164071466017 -0.53260502425104,0.014304435756896"/>
		<polygon fill="#FFA100" stroke="#000000" points="-0.4837094214804,-0.27034989614151 -0.44546489902405,-0.35590115453014 -0.45236304717474,-0.1472212000339 -0.49095702533873,-0.069877199864126"/>
		<polygon fill="#FFA100" stroke="#000000" points="-0.43833573695919,-0.37097426657857 -0.3962427612477,-0.46513433997339 -0.40268123749785,-0.24757165690915 -0.44523388510988,-0.16229431208233"/>
		<polygon fill="#FFA100" stroke="#000000" points="-0.57206444650924,0.12529722735715 -0.53989408523194,0.060826433039936 -0.54765992142539,0.26026668554943 -0.58001868917265,0.31716245681418"/>
		<polygon fill="#FFA100" stroke="#000000" points="-0.53392998226921,0.049642256406708 -0.49876681482195,-0.020826250816205 -0.50627301282897,0.18679930139016 -0.54169581846265,0.2490825089162"/>
		<polygon fill="#FFA100" stroke="#000000" points="-0.49222797617469,-0.03308587265225 -0.4536339980107,-0.11042987282203 -0.46079050362661,0.10606580596851 -0.4997341741817,0.17453967955411"/>
		<polygon fill="#FFA100" stroke="#000000" points="-0.4464330359867,-0.1239280900121 -0.40388038837467,-0.20920543483892 -0.41057261682794,0.016931794127414 -0.45358954160261,0.092567588778443"/>
		<polygon fill="#FFA100" stroke="#000000" points="-0.58142950292072,0.35229930041193 -0.54907073517346,0.29540352914718 -0.55710571498813,0.50175586046468 -0.58964729862551,0.55052172399773"/>
		<polygon fill="#FFA100" stroke="#000000" points="-0.5430674113754,0.28566560607991 -0.50764460574172,0.22338239855387 -0.5154234892261,0.43855058056644 -0.55110239119008,0.49201793739741"/>
		<polygon fill="#FFA100" stroke="#000000" points="-0.50105204352326,0.21269124603965 -0.46210837296817,0.14421737245405 -0.46953802749888,0.36897624041712 -0.50883092700765,0.42785942805222"/>
		<polygon fill="#FFA100" stroke="#000000" points="-0.45483522887532,0.13242563744105 -0.41181830410065,0.056789842790019 -0.41877958757546,0.29201871550899 -0.46226488340603,0.35718450540412"/>
		<polygon fill="#FFFFFF" stroke="#000000" points="-0.3990258609544,0.31329345422725 -0.15616771077129,0.33142688180297 -0.2112059338823,0.39481408163289 -0.44251115678497,0.37845924412238"/>
		<polygon fill="#00D800" stroke="#000000" points="-0.11486906116755,0.33443183222117 0.12123896945946,0.35206125034113 0.055285927714079,0.41374170921503 -0.16990728427855,0.3978190320511"/>
		<polygon fill="#EE0000" stroke="#000000" points="0.16142382197362,0.35498508922561 0.39105929987248,0.37213122290139 0.31479107809506,0.43217297067024 0.095470780228239,0.41666554809951"/>
		<polygon fill="#EE0000" stroke="#000000" points="0.43017485704246,0.37497719381065 0.65360033664375,0.39165964712698 0.56758080529257,0.4501271448753 0.35390663526503,0.4350189415795"/>
		<polygon fill="#FFFFFF" stroke="#000000" points="-0.45074218388266,0.38926981364096 -0.21943696097998,0.40562465115148 -0.26923663892318,0.46297864913366 -0.49003508339143,0.44815300127606"/>
		<polygon fill="#0000F2" stroke="#000000" points="-0.18003606832274,0.4083429283116 0.045157143669894,0.42426560547554 -0.014597519053195,0.48014922993132 -0.22983574626594,0.46569692629378"/>
		<polygon fill="#0000F2" stroke="#000000" points="0.083546435354233,0.42691403756965 0.30286673322105,0.44242146014038 0.23367719972769,0.49689054859476 0.023791772631144,0.48279766202543"/>
		<polygon fill="#EE0000" stroke="#000000" points="0.34028292311236,0.44500270734782 0.5539570931399,0.46011091064362 0.47582324385372,0.51321850824907 0.271093389619,0.4994717958022"/>
		<polygon fill="#FFFFFF" stroke="#000000" points="-0.49749696259603,0.45794943202198 -0.27669851812778,0.47277507987959 -0.32197358293779,0.52491810736499 -0.53317586456001,0.51141678885295"/>
		<polygon fill="#0000F2" stroke="#000000" points="-0.23902902966216,0.47524586500381 -0.023790802449418,0.48969816864135 -0.078181669663413,0.54056547603955 -0.28430409447217,0.52738889248922"/>
		<polygon fill="#0000F2" stroke="#000000" points="0.012955834827901,0.49210838000944 0.22284126192444,0.50620126657877 0.15978862954411,0.5558391126084 -0.041435032386094,0.54297568740764"/>
		<polygon fill="#0000F2" stroke="#000000" points="0.25869857780496,0.50855310654013 0.46342843203968,0.522299818987 0.39214343164066,0.57075225222922 0.19564594542463,0.55819095256976"/>
		<polygon fill="#FFFFFF" stroke="#000000" points="-0.5399716756705,0.52033550013687 -0.32876939404829,0.53383681864891 -0.37010968466991,0.58144818970235 -0.57251325930788,0.56910136366993"/>
		<polygon fill="#FEFE00" stroke="#000000" points="-0.29268585847349,0.53609245983589 -0.08656343366473,0.54926904338622 -0.13628169420298,0.59576644582978 -0.33402614909512,0.58370383088933"/>
		<polygon fill="#FFFFFF" stroke="#000000" points="-0.051325186464419,0.55147181007176 0.14989847546578,0.56433523527253 0.092200929792095,0.60975731806778 -0.10104344700267,0.59796921251532"/>
		<polygon fill="#EE0000" stroke="#000000" points="0.18432081473761,0.5664869664319 0.38081830095363,0.57904826609136 0.31551945221436,0.62343191049934 0.12662326906392,0.61190904922716"/>
		<polygon fill="#FEFE00" stroke="#000000" points="-0.36501221537902,-0.7182813085796 -0.14033580721297,-0.6898792080132 -0.14224932042732,-0.48266752205647 -0.3712111033489,-0.50881455800951"/>
		<polygon fill="#FEFE00" stroke="#000000" points="-0.10083932805046,-0.68512662195252 0.11804509170686,-0.65745670612508 0.12019751441092,-0.45245439454117 -0.10275284126481,-0.47791493599579"/>
		<polygon fill="#0000F2" stroke="#000000" points="0.15652071173517,-0.6528269430226 0.36983426257832,-0.62586125947497 0.3758457416694,-0.42302389877141 0.15867313443923,-0.4478246314387"/>
		<polygon fill="#EE0000" stroke="#000000" points="0.40732809773754,-0.6213496187944 0.61528078508586,-0.59506162003506 0.62495615778999,-0.39434601392531 0.41333957682862,-0.41851225809084"/>
		<polygon fill="#0000F2" stroke="#000000" points="-0.37193334066989,-0.47135173638324 -0.14297155774831,-0.44520470043019 -0.14495802608306,-0.23009280590251 -0.37837181692004,-0.253789053319"/>
		<polygon fill="#FEFE00" stroke="#000000" points="-0.10272461693162,-0.44086269161626 0.12022573874411,-0.41540215016165 0.12245912773456,-0.20268839981708 -0.10471108526637,-0.22575079708858"/>
		<polygon fill="#FEFE00" stroke="#000000" points="0.15941316801951,-0.41117442793969 0.37658577524968,-0.38637369527241 0.38282039978882,-0.1760070338676 0.16164655700996,-0.19846067759513"/>
		<polygon fill="#EE0000" stroke="#000000" points="0.41475498761843,-0.38225580599474 0.62637156857979,-0.35808956182922 0.63640141177316,-0.15002046544369 0.42098961215756,-0.17188914458994"/>
		<polygon fill="#0000F2" stroke="#000000" points="-0.37912200689479,-0.21487416732099 -0.14570821605781,-0.1911779199045 -0.14777189285485,0.032294771675387 -0.38581423534807,0.011263061645345"/>
		<polygon fill="#FEFE00" stroke="#000000" points="-0.10468174323711,-0.18728192604607 0.12248846976382,-0.16421952877457 0.12480748109686,0.056649115179491 -0.10674542003415,0.036190765533814"/>
		<polygon fill="#FEFE00" stroke="#000000" points="0.16241454100782,-0.16042801253198 0.38358838378667,-0.13797436880445 0.39005881343858,0.08034875156666 0.16473355234086,0.060440631422086"/>
		<polygon fill="#EE0000" stroke="#000000" points="0.42245773993518,-0.13428318313839 0.63786953955077,-0.11241450399214 0.64827369649132,0.10341973105394 0.42892816958709,0.084039937232725"/>
		<polygon fill="#0000F2" stroke="#000000" points="-0.38659403278085,0.051716104518667 -0.14855169028764,0.072747814548709 -0.15069716607254,0.30507840481336 -0.39355531625565,0.28694497723764"/>
		<polygon fill="#FFFFFF" stroke="#000000" points="-0.10671489265938,0.076159090561945 0.12483800847163,0.096617440207622 0.12724766218272,0.32611909894656 -0.10886036844429,0.30848968082659"/>
		<polygon fill="#00D800" stroke="#000000" points="0.16553110073897,0.099935482853634 0.39085636183669,0.11984360299821 0.39757623234893,0.34658327526835 0.16794075445006,0.32943714159257"/>
		<polygon fill="#00D800" stroke="#000000" points="0.43045201542778,0.12307218300946 0.64979754233201,0.14245197683067 0.6605973655413,0.36649430859593 0.43717188594002,0.34981185527961"/>
	</g>
</svg>