<?xml version="1.0" encoding="UTF-8"?>
<svg id="Layer_1" data-name="Layer 1" xmlns="http://www.w3.org/2000/svg" viewBox="0 0 405 405">
  <defs>
    <style>
      .cls-1 {
        fill: none;
        stroke: #231f20;
        stroke-miterlimit: 10;
        stroke-width: 5px;
      }

      .cls-2 {
        fill: #21409a;
      }

      .cls-3 {
        fill: #f26522;
      }

      .cls-4 {
        fill: #00a14b;
      }

      .cls-5 {
        fill: #ed1c24;
      }

      .cls-6 {
        fill: #ffde17;
      }

      .cls-7 {
        fill: #414042;
      }
    </style>
  </defs>
  <g>
    <rect class="cls-7" x="352.5" y="152.5" width="50" height="100"/>
    <path class="cls-3" d="M402.48,77.65c.01,24.95,.01,49.9,.02,74.85h-50V52.5c16.66,8.38,33.32,16.77,49.98,25.15Z"/>
    <path class="cls-6" d="M402.5,252.5c-.01,24.95-.01,49.9-.02,74.85-16.66,8.38-33.32,16.77-49.98,25.15v-100h50Z"/>
    <rect class="cls-2" x="252.5" y="252.5" width="100" height="100"/>
    <rect class="cls-7" x="252.5" y="152.5" width="100" height="100"/>
    <rect class="cls-4" x="252.5" y="52.5" width="100" height="100"/>
    <path class="cls-6" d="M327.35,2.52c8.38,16.66,16.77,33.32,25.15,49.98h-100V2.5c24.95,.01,49.9,.01,74.85,.02Z"/>
    <path class="cls-5" d="M352.5,352.5c-8.38,16.66-16.77,33.32-25.15,49.98-24.95,.01-49.9,.01-74.85,.02v-50h100Z"/>
    <rect class="cls-7" x="152.5" y="352.5" width="100" height="50"/>
    <rect class="cls-7" x="152.5" y="252.5" width="100" height="100"/>
    <rect class="cls-7" x="152.5" y="152.5" width="100" height="100"/>
    <rect class="cls-7" x="152.5" y="52.5" width="100" height="100"/>
    <rect class="cls-7" x="152.5" y="2.5" width="100" height="50"/>
    <path class="cls-2" d="M152.5,352.5v50c-24.95-.01-49.9-.01-74.85-.02-8.38-16.66-16.77-33.32-25.15-49.98h100Z"/>
    <rect class="cls-6" x="52.5" y="252.5" width="100" height="100"/>
    <rect class="cls-7" x="52.5" y="152.5" width="100" height="100"/>
    <rect class="cls-5" x="52.5" y="52.5" width="100" height="100"/>
    <path class="cls-4" d="M152.5,2.5V52.5H52.5c8.38-16.66,16.77-33.32,25.15-49.98,24.95-.01,49.9-.01,74.85-.02Z"/>
    <path class="cls-3" d="M52.5,252.5v100c-16.66-8.38-33.32-16.77-49.98-25.15-.01-24.95-.01-49.9-.02-74.85H52.5Z"/>
    <rect class="cls-7" x="2.5" y="152.5" width="50" height="100"/>
    <path class="cls-6" d="M52.5,52.5v100H2.5c.01-24.95,.01-49.9,.02-74.85,16.66-8.38,33.32-16.77,49.98-25.15Z"/>
  </g>
  <g>
    <line class="cls-1" x1="252.5" y1="252.5" x2="252.5" y2="152.5"/>
    <line class="cls-1" x1="252.5" y1="152.5" x2="152.5" y2="152.5"/>
    <polyline class="cls-1" points="352.5 152.5 252.5 152.5 252.5 52.5"/>
    <line class="cls-1" x1="152.5" y1="252.5" x2="252.5" y2="252.5"/>
    <polyline class="cls-1" points="252.5 352.5 252.5 252.5 352.5 252.5"/>
    <line class="cls-1" x1="152.5" y1="152.5" x2="152.5" y2="252.5"/>
    <polyline class="cls-1" points="152.5 52.5 152.5 152.5 52.5 152.5"/>
    <polyline class="cls-1" points="52.5 252.5 152.5 252.5 152.5 352.5"/>
    <line class="cls-1" x1="152.5" y1="52.5" x2="252.5" y2="52.5"/>
    <line class="cls-1" x1="252.5" y1="2.5" x2="152.5" y2="2.5"/>
    <path class="cls-1" d="M152.5,2.5c-24.95,.01-49.9,.01-74.85,.02-8.38,16.66-16.77,33.32-25.15,49.98h100V2.5Z"/>
    <path class="cls-1" d="M252.5,2.5c24.95,.01,49.9,.01,74.85,.02,8.38,16.66,16.77,33.32,25.15,49.98h-100V2.5Z"/>
    <line class="cls-1" x1="52.5" y1="252.5" x2="52.5" y2="152.5"/>
    <line class="cls-1" x1="2.5" y1="152.5" x2="2.5" y2="252.5"/>
    <path class="cls-1" d="M2.5,252.5c.01,24.95,.01,49.9,.02,74.85,16.66,8.38,33.32,16.77,49.98,25.15v-100H2.5Z"/>
    <path class="cls-1" d="M2.5,152.5c.01-24.95,.01-49.9,.02-74.85,16.66-8.38,33.32-16.77,49.98-25.15v100H2.5Z"/>
    <line class="cls-1" x1="252.5" y1="352.5" x2="152.5" y2="352.5"/>
    <line class="cls-1" x1="152.5" y1="402.5" x2="252.5" y2="402.5"/>
    <path class="cls-1" d="M252.5,402.5c24.95-.01,49.9-.01,74.85-.02,8.38-16.66,16.77-33.32,25.15-49.98h-100v50Z"/>
    <path class="cls-1" d="M152.5,402.5c-24.95-.01-49.9-.01-74.85-.02-8.38-16.66-16.77-33.32-25.15-49.98h100v50Z"/>
    <line class="cls-1" x1="352.5" y1="152.5" x2="352.5" y2="252.5"/>
    <line class="cls-1" x1="402.5" y1="252.5" x2="402.5" y2="152.5"/>
    <path class="cls-1" d="M402.5,152.5c-.01-24.95-.01-49.9-.02-74.85-16.66-8.38-33.32-16.77-49.98-25.15v100h50Z"/>
    <path class="cls-1" d="M402.5,252.5c-.01,24.95-.01,49.9-.02,74.85-16.66,8.38-33.32,16.77-49.98,25.15v-100h50Z"/>
  </g>
</svg>